<?xml version="1.0" encoding="UTF-8"?><svg id="block_folding" xmlns="http://www.w3.org/2000/svg" xmlns:xlink="http://www.w3.org/1999/xlink" viewBox="0 0 340.17 121.76"><defs><style>.cls-1{fill:#64748b;}.cls-2,.cls-3,.cls-4{fill:#fff;}.cls-5{fill:#f6f6f6;}.cls-6{fill:#5d8cd4;}.cls-7{clip-path:url(#clippath-1);}.cls-8{fill:#6ba;}.cls-3{font-family:YuGothicUI-Regular, 'Yu Gothic UI';font-size:7.2px;opacity:.7;}.cls-9{stroke:#64748b;stroke-width:1.2px;}.cls-9,.cls-10,.cls-11{fill:none;}.cls-10{clip-rule:evenodd;}.cls-4{font-family:YuGothicUI-Bold, 'Yu Gothic UI';font-size:9.6px;font-weight:700;}.cls-12{fill:#99a9c2;}</style><clipPath id="clippath-1"><path class="cls-10" d="m330.09,46.8h-58.82v28.81h58.82v-28.81Zm25.81-181.87H-182.5v784.49H355.9V-135.06Z"/></clipPath></defs><rect class="cls-2" x="-182.5" y="-135.06" width="538.4" height="784.49"/><rect class="cls-11" x="-182.5" y="-135.06" width="538.4" height="784.49"/><rect class="cls-11" x="-182.5" y="-135.06" width="538.4" height="784.49"/><rect class="cls-5" x="-182.5" y="-111.06" width="538.4" height="784.49"/><rect class="cls-8" x="96.6" y="15.59" width="60.02" height="30.01"/><text class="cls-3" transform="translate(107.33 23.99)"><tspan x="0" y="0">List&lt;string&gt;</tspan></text><text class="cls-4" transform="translate(118.47 37.2)"><tspan x="0" y="0">rest</tspan></text><rect class="cls-12" x="36.58" y="45.6" width="180.07" height="30.01"/><text class="cls-3" transform="translate(107.33 54.01)"><tspan x="0" y="0">List&lt;string&gt;</tspan></text><text class="cls-4" transform="translate(111.69 67.21)"><tspan x="0" y="0">LIS</tspan></text><text class="cls-4" transform="translate(124.32 67.21)"><tspan x="0" y="0">T(4)</tspan></text><rect class="cls-6" x="6.57" y="75.61" width="60.02" height="30.01"/><text class="cls-3" transform="translate(27.55 84.02)"><tspan x="0" y="0">string</tspan></text><text class="cls-4" transform="translate(26.34 97.22)"><tspan x="0" y="0">osha</tspan></text><rect class="cls-6" x="66.59" y="75.61" width="60.02" height="30.01"/><text class="cls-3" transform="translate(87.57 84.02)"><tspan x="0" y="0">string</tspan></text><text class="cls-4" transform="translate(85.52 97.22)"><tspan x="0" y="0">noda</tspan></text><rect class="cls-6" x="126.61" y="75.61" width="60.02" height="30.01"/><text class="cls-3" transform="translate(147.59 84.02)"><tspan x="0" y="0">string</tspan></text><text class="cls-4" transform="translate(144.98 97.22)"><tspan x="0" y="0">katsu</tspan></text><rect class="cls-6" x="186.63" y="75.61" width="60.02" height="30.01"/><text class="cls-3" transform="translate(207.61 84.02)"><tspan x="0" y="0">string</tspan></text><text class="cls-4" transform="translate(205.92 97.22)"><tspan x="0" y="0">kagu</tspan></text><rect class="cls-8" x="270.67" y="16.19" width="60.02" height="30.01"/><text class="cls-3" transform="translate(281.39 24.59)"><tspan x="0" y="0">List&lt;string&gt;</tspan></text><text class="cls-4" transform="translate(292.54 37.8)"><tspan x="0" y="0">rest</tspan></text><rect class="cls-11" x="-182.5" y="-135.06" width="538.4" height="784.49"/><g class="cls-7"><rect class="cls-1" x="272.47" y="48" width="60.02" height="30.01"/></g><rect class="cls-11" x="-182.5" y="-135.06" width="538.4" height="784.49"/><rect class="cls-12" x="270.67" y="46.2" width="60.02" height="30.01"/><text class="cls-3" transform="translate(281.39 54.61)"><tspan x="0" y="0">List&lt;string&gt;</tspan></text><text class="cls-4" transform="translate(285.76 67.81)"><tspan x="0" y="0">LIS</tspan></text><text class="cls-4" transform="translate(298.38 67.81)"><tspan x="0" y="0">T(4)</tspan></text><rect class="cls-9" x="271.27" y="46.8" width="58.82" height="28.81"/><rect class="cls-11" x="-182.5" y="-135.06" width="538.4" height="784.49"/><rect class="cls-11" x="-182.5" y="-135.06" width="538.4" height="784.49"/><rect class="cls-11" x="-182.5" y="-135.06" width="538.4" height="784.49"/><rect class="cls-11" x="-182.5" y="-135.06" width="538.4" height="784.49"/><rect class="cls-11" x="-182.5" y="-135.06" width="538.4" height="784.49"/></svg>