<?xml version="1.0" encoding="UTF-8"?><svg id="block_folding" xmlns="http://www.w3.org/2000/svg" xmlns:xlink="http://www.w3.org/1999/xlink" viewBox="0 0 340.17 121.76"><defs><style>.cls-1{fill:#64748b;}.cls-2{fill:#fff;}.cls-3{fill:#f6f6f6;}.cls-4{fill:#5d8cd4;}.cls-5{clip-path:url(#clippath-1);}.cls-6{fill:#6ba;}.cls-7{stroke:#64748b;stroke-width:1.2px;}.cls-7,.cls-8,.cls-9{fill:none;}.cls-8{clip-rule:evenodd;}.cls-10{opacity:.7;}.cls-11{fill:#99a9c2;}</style><clipPath id="clippath-1"><path class="cls-8" d="m330.09,46.8h-58.82v28.81h58.82v-28.81Zm25.81-181.87H-182.5v784.49H355.9V-135.06Z"/></clipPath></defs><rect class="cls-9" x="-182.5" y="-135.06" width="538.4" height="784.49"/><rect class="cls-9" x="-182.5" y="-135.06" width="538.4" height="784.49"/><rect class="cls-3" x="-189.18" y="-19.22" width="538.4" height="784.49"/><rect class="cls-6" x="96.6" y="15.59" width="60.02" height="30.01"/><g class="cls-10"><path class="cls-2" d="m110.61,23.99h-2.62v-5.04h.59v4.51h2.03v.53Z"/><path class="cls-2" d="m111.6,19.48c-.1,0-.19-.04-.26-.11-.07-.07-.11-.16-.11-.27s.04-.2.11-.27c.07-.07.16-.11.26-.11s.2.04.27.11c.07.07.11.16.11.27s-.04.19-.11.26c-.07.07-.16.11-.27.11Zm.28,4.52h-.58v-3.6h.58v3.6Z"/><path class="cls-2" d="m112.83,23.86v-.62c.31.23.66.35,1.04.35.51,0,.76-.17.76-.51,0-.1-.02-.18-.07-.24-.04-.07-.1-.13-.18-.18-.07-.05-.16-.1-.26-.14s-.21-.08-.32-.13c-.16-.06-.3-.13-.42-.19-.12-.06-.22-.14-.3-.22s-.14-.17-.18-.28c-.04-.1-.06-.22-.06-.36,0-.17.04-.32.12-.45.08-.13.18-.24.31-.33.13-.09.28-.15.44-.2.17-.04.34-.07.51-.07.31,0,.59.05.84.16v.58c-.27-.17-.57-.26-.92-.26-.11,0-.21.01-.29.04-.09.02-.16.06-.22.1-.06.04-.11.1-.14.16-.03.06-.05.13-.05.21,0,.09.02.17.05.24.03.06.08.12.15.17s.15.09.24.13c.09.04.2.08.32.13.16.06.3.12.43.19s.23.14.32.22c.09.08.16.17.21.28s.07.23.07.38c0,.18-.04.33-.12.46-.08.13-.18.24-.31.33-.13.09-.28.15-.45.19-.17.04-.35.06-.54.06-.37,0-.69-.07-.96-.21Z"/><path class="cls-2" d="m117.77,23.96c-.14.08-.31.11-.54.11-.63,0-.95-.35-.95-1.05v-2.13h-.62v-.49h.62v-.88l.58-.19v1.07h.91v.49h-.91v2.03c0,.24.04.41.12.52.08.1.22.15.41.15.15,0,.27-.04.38-.12v.49Z"/><path class="cls-2" d="m121.94,23.55l-3.02-1.52v-.21l3.02-1.7v.53l-2.26,1.25h0s2.26,1.12,2.26,1.12v.52Z"/><path class="cls-2" d="m123.26,23.86v-.62c.31.23.66.35,1.04.35.51,0,.76-.17.76-.51,0-.1-.02-.18-.07-.24-.04-.07-.1-.13-.18-.18-.07-.05-.16-.1-.26-.14s-.21-.08-.32-.13c-.16-.06-.3-.13-.42-.19-.12-.06-.22-.14-.3-.22s-.14-.17-.18-.28c-.04-.1-.06-.22-.06-.36,0-.17.04-.32.12-.45.08-.13.18-.24.31-.33.13-.09.28-.15.44-.2.17-.04.34-.07.51-.07.31,0,.59.05.84.16v.58c-.27-.17-.57-.26-.92-.26-.11,0-.21.01-.29.04-.09.02-.16.06-.22.1-.06.04-.11.1-.14.16-.03.06-.05.13-.05.21,0,.09.02.17.05.24.03.06.08.12.15.17s.15.09.24.13c.09.04.2.08.32.13.16.06.3.12.43.19s.23.14.32.22c.09.08.16.17.21.28s.07.23.07.38c0,.18-.04.33-.12.46-.08.13-.18.24-.31.33-.13.09-.28.15-.45.19-.17.04-.35.06-.54.06-.37,0-.69-.07-.96-.21Z"/><path class="cls-2" d="m128.2,23.96c-.14.08-.31.11-.54.11-.63,0-.95-.35-.95-1.05v-2.13h-.62v-.49h.62v-.88l.58-.19v1.07h.91v.49h-.91v2.03c0,.24.04.41.12.52.08.1.22.15.41.15.15,0,.27-.04.38-.12v.49Z"/><path class="cls-2" d="m130.85,20.98c-.1-.08-.25-.12-.44-.12-.25,0-.45.12-.62.35-.17.23-.25.55-.25.95v1.84h-.58v-3.6h.58v.74h.01c.08-.25.21-.45.38-.59.17-.14.36-.21.57-.21.15,0,.26.02.34.05v.6Z"/><path class="cls-2" d="m131.77,19.48c-.1,0-.19-.04-.26-.11-.07-.07-.11-.16-.11-.27s.04-.2.11-.27c.07-.07.16-.11.26-.11s.2.04.27.11c.07.07.11.16.11.27s-.04.19-.11.26c-.07.07-.16.11-.27.11Zm.28,4.52h-.58v-3.6h.58v3.6Z"/><path class="cls-2" d="m136.21,23.99h-.58v-2.05c0-.76-.28-1.15-.84-1.15-.29,0-.53.11-.72.33-.19.22-.28.49-.28.82v2.05h-.58v-3.6h.58v.6h.01c.27-.46.67-.68,1.18-.68.39,0,.7.13.9.38.21.25.31.62.31,1.1v2.2Z"/><path class="cls-2" d="m140.37,23.71c0,1.32-.63,1.98-1.9,1.98-.45,0-.83-.08-1.17-.25v-.58c.41.23.79.34,1.16.34.89,0,1.33-.47,1.33-1.41v-.39h-.01c-.27.46-.69.69-1.24.69-.45,0-.81-.16-1.08-.48-.27-.32-.41-.75-.41-1.29,0-.61.15-1.1.44-1.46.29-.36.7-.54,1.21-.54.49,0,.84.19,1.08.58h.01v-.5h.58v3.31Zm-.58-1.34v-.53c0-.29-.1-.53-.29-.74s-.43-.31-.72-.31c-.36,0-.64.13-.84.39-.2.26-.3.62-.3,1.09,0,.4.1.72.29.96.19.24.45.36.77.36s.59-.11.79-.34c.2-.23.3-.52.3-.88Z"/><path class="cls-2" d="m144.93,22.03l-3.02,1.52v-.52l2.26-1.1v-.02l-2.26-1.25v-.53l3.02,1.7v.21Z"/></g><g><path class="cls-2" d="m121.96,33.43c-.13-.1-.32-.15-.57-.15-.32,0-.59.15-.81.44-.21.29-.32.69-.32,1.19v2.3h-1.09v-4.8h1.09v.99h.02c.11-.34.27-.6.49-.79.22-.19.47-.28.74-.28.2,0,.35.03.45.09v1.03Z"/><path class="cls-2" d="m126.8,35.09h-3.27c.01.44.15.79.41,1.03.26.24.62.36,1.08.36.51,0,.98-.15,1.41-.46v.88c-.44.28-1.02.41-1.74.41s-1.26-.22-1.66-.65-.6-1.05-.6-1.84c0-.75.22-1.36.66-1.83.44-.47.99-.71,1.65-.71s1.17.21,1.52.63.54,1.01.54,1.76v.42Zm-1.05-.77c0-.39-.1-.69-.28-.91-.18-.22-.43-.33-.75-.33s-.58.11-.79.34c-.22.23-.35.53-.4.9h2.22Z"/><path class="cls-2" d="m127.54,37.05v-1.01c.41.31.85.46,1.35.46.66,0,.98-.19.98-.58,0-.11-.03-.2-.08-.28-.06-.08-.13-.14-.23-.2-.1-.06-.21-.11-.34-.16s-.27-.1-.43-.16c-.2-.08-.37-.16-.53-.25-.16-.09-.29-.19-.39-.3-.11-.11-.18-.24-.24-.38-.05-.14-.08-.31-.08-.49,0-.23.05-.44.16-.61s.26-.33.44-.45c.18-.12.39-.21.63-.27.24-.06.48-.09.73-.09.44,0,.84.07,1.19.2v.95c-.34-.23-.72-.35-1.16-.35-.14,0-.26.01-.37.04-.11.03-.21.07-.28.12-.08.05-.14.11-.18.18-.04.07-.07.15-.07.23,0,.1.02.19.07.26s.11.14.19.19.19.1.31.15.26.09.42.15c.21.08.39.17.56.26s.3.19.42.3c.12.11.21.24.27.38s.09.32.09.52c0,.24-.06.46-.17.64-.11.18-.26.33-.45.45-.19.12-.4.21-.65.27-.25.06-.5.09-.78.09-.53,0-.98-.09-1.36-.26Z"/><path class="cls-2" d="m134.51,37.15c-.21.11-.49.16-.84.16-.93,0-1.4-.45-1.4-1.34v-2.71h-.8v-.85h.8v-1.11l1.09-.31v1.42h1.15v.85h-1.15v2.4c0,.28.05.49.15.61.1.12.28.18.52.18.18,0,.34-.05.48-.16v.86Z"/></g><rect class="cls-11" x="36.58" y="45.6" width="180.07" height="30.01"/><g class="cls-10"><path class="cls-2" d="m110.61,54.01h-2.62v-5.04h.59v4.51h2.03v.53Z"/><path class="cls-2" d="m111.6,49.49c-.1,0-.19-.04-.26-.11-.07-.07-.11-.16-.11-.27s.04-.2.11-.27c.07-.07.16-.11.26-.11s.2.04.27.11c.07.07.11.16.11.27s-.04.19-.11.26c-.07.07-.16.11-.27.11Zm.28,4.52h-.58v-3.6h.58v3.6Z"/><path class="cls-2" d="m112.83,53.88v-.62c.31.23.66.35,1.04.35.51,0,.76-.17.76-.51,0-.1-.02-.18-.07-.24-.04-.07-.1-.13-.18-.18-.07-.05-.16-.1-.26-.14s-.21-.08-.32-.13c-.16-.06-.3-.13-.42-.19-.12-.06-.22-.14-.3-.22s-.14-.17-.18-.28c-.04-.1-.06-.22-.06-.36,0-.17.04-.32.12-.45.08-.13.18-.24.31-.33.13-.09.28-.15.44-.2.17-.04.34-.07.51-.07.31,0,.59.05.84.16v.58c-.27-.17-.57-.26-.92-.26-.11,0-.21.01-.29.04-.09.02-.16.06-.22.1-.06.04-.11.1-.14.16-.03.06-.05.13-.05.21,0,.09.02.17.05.24.03.06.08.12.15.17s.15.09.24.13c.09.04.2.08.32.13.16.06.3.12.43.19s.23.14.32.22c.09.08.16.17.21.28s.07.23.07.38c0,.18-.04.33-.12.46-.08.13-.18.24-.31.33-.13.09-.28.15-.45.19-.17.04-.35.06-.54.06-.37,0-.69-.07-.96-.21Z"/><path class="cls-2" d="m117.77,53.97c-.14.08-.31.11-.54.11-.63,0-.95-.35-.95-1.05v-2.13h-.62v-.49h.62v-.88l.58-.19v1.07h.91v.49h-.91v2.03c0,.24.04.41.12.52.08.1.22.15.41.15.15,0,.27-.04.38-.12v.49Z"/><path class="cls-2" d="m121.94,53.56l-3.02-1.52v-.21l3.02-1.7v.53l-2.26,1.25h0s2.26,1.12,2.26,1.12v.52Z"/><path class="cls-2" d="m123.26,53.88v-.62c.31.23.66.35,1.04.35.51,0,.76-.17.76-.51,0-.1-.02-.18-.07-.24-.04-.07-.1-.13-.18-.18-.07-.05-.16-.1-.26-.14s-.21-.08-.32-.13c-.16-.06-.3-.13-.42-.19-.12-.06-.22-.14-.3-.22s-.14-.17-.18-.28c-.04-.1-.06-.22-.06-.36,0-.17.04-.32.12-.45.08-.13.18-.24.31-.33.13-.09.28-.15.44-.2.17-.04.34-.07.51-.07.31,0,.59.05.84.16v.58c-.27-.17-.57-.26-.92-.26-.11,0-.21.01-.29.04-.09.02-.16.06-.22.1-.06.04-.11.1-.14.16-.03.06-.05.13-.05.21,0,.09.02.17.05.24.03.06.08.12.15.17s.15.09.24.13c.09.04.2.08.32.13.16.06.3.12.43.19s.23.14.32.22c.09.08.16.17.21.28s.07.23.07.38c0,.18-.04.33-.12.46-.08.13-.18.24-.31.33-.13.09-.28.15-.45.19-.17.04-.35.06-.54.06-.37,0-.69-.07-.96-.21Z"/><path class="cls-2" d="m128.2,53.97c-.14.08-.31.11-.54.11-.63,0-.95-.35-.95-1.05v-2.13h-.62v-.49h.62v-.88l.58-.19v1.07h.91v.49h-.91v2.03c0,.24.04.41.12.52.08.1.22.15.41.15.15,0,.27-.04.38-.12v.49Z"/><path class="cls-2" d="m130.85,50.99c-.1-.08-.25-.12-.44-.12-.25,0-.45.12-.62.35-.17.23-.25.55-.25.95v1.84h-.58v-3.6h.58v.74h.01c.08-.25.21-.45.38-.59.17-.14.36-.21.57-.21.15,0,.26.02.34.05v.6Z"/><path class="cls-2" d="m131.77,49.49c-.1,0-.19-.04-.26-.11-.07-.07-.11-.16-.11-.27s.04-.2.11-.27c.07-.07.16-.11.26-.11s.2.04.27.11c.07.07.11.16.11.27s-.04.19-.11.26c-.07.07-.16.11-.27.11Zm.28,4.52h-.58v-3.6h.58v3.6Z"/><path class="cls-2" d="m136.21,54.01h-.58v-2.05c0-.76-.28-1.15-.84-1.15-.29,0-.53.11-.72.33-.19.22-.28.49-.28.82v2.05h-.58v-3.6h.58v.6h.01c.27-.46.67-.68,1.18-.68.39,0,.7.13.9.38.21.25.31.62.31,1.1v2.2Z"/><path class="cls-2" d="m140.37,53.72c0,1.32-.63,1.98-1.9,1.98-.45,0-.83-.08-1.17-.25v-.58c.41.23.79.34,1.16.34.89,0,1.33-.47,1.33-1.41v-.39h-.01c-.27.46-.69.69-1.24.69-.45,0-.81-.16-1.08-.48-.27-.32-.41-.75-.41-1.29,0-.61.15-1.1.44-1.46.29-.36.7-.54,1.21-.54.49,0,.84.19,1.08.58h.01v-.5h.58v3.31Zm-.58-1.34v-.53c0-.29-.1-.53-.29-.74s-.43-.31-.72-.31c-.36,0-.64.13-.84.39-.2.26-.3.62-.3,1.09,0,.4.1.72.29.96.19.24.45.36.77.36s.59-.11.79-.34c.2-.23.3-.52.3-.88Z"/><path class="cls-2" d="m144.93,52.04l-3.02,1.52v-.52l2.26-1.1v-.02l-2.26-1.25v-.53l3.02,1.7v.21Z"/></g><g><path class="cls-2" d="m116.24,67.21h-3.72v-6.72h1.12v5.78h2.61v.94Z"/><path class="cls-2" d="m118.36,67.21h-1.15v-6.72h1.15v6.72Z"/><path class="cls-2" d="m119.7,66.94v-1.15c.1.09.23.18.37.25.14.08.29.14.45.19.16.05.32.09.48.12.16.03.31.04.44.04.47,0,.82-.08,1.05-.23.23-.16.34-.38.34-.68,0-.16-.04-.3-.12-.42-.08-.12-.18-.22-.32-.32-.14-.1-.3-.19-.49-.28-.19-.09-.39-.18-.6-.28-.23-.12-.44-.25-.64-.37-.2-.12-.37-.26-.51-.42-.15-.15-.26-.32-.34-.51-.08-.19-.12-.41-.12-.67,0-.32.07-.59.21-.82.14-.23.33-.42.56-.58.23-.15.5-.26.79-.34.3-.07.6-.11.91-.11.7,0,1.22.08,1.54.24v1.1c-.38-.28-.87-.41-1.47-.41-.17,0-.33.02-.5.05s-.31.08-.44.15c-.13.07-.24.16-.32.28-.08.11-.12.25-.12.41,0,.15.03.28.09.39s.15.21.27.3c.12.09.27.18.44.27s.37.18.6.28c.23.12.46.25.66.38.21.13.39.28.55.45.16.16.28.34.38.54.09.2.14.42.14.68,0,.34-.07.63-.21.86s-.32.43-.56.57c-.23.15-.5.25-.8.32-.3.07-.62.1-.96.1-.11,0-.25,0-.42-.03-.16-.02-.33-.04-.5-.08s-.33-.07-.49-.12-.28-.1-.37-.16Z"/></g><g><path class="cls-2" d="m129.46,61.43h-1.93v5.78h-1.12v-5.78h-1.93v-.95h4.98v.95Z"/><path class="cls-2" d="m132.71,68.74h-.92c-.99-1.11-1.48-2.47-1.48-4.09s.49-3.02,1.48-4.16h.92c-.97,1.19-1.45,2.57-1.45,4.15s.48,2.93,1.45,4.1Z"/><path class="cls-2" d="m137.15,60.49v4.34h1v.91h-1v1.48h-1.05v-1.48h-3.04v-.91c.27-.31.56-.64.85-1.01.29-.36.57-.73.83-1.11.27-.38.52-.75.74-1.13.23-.38.42-.74.58-1.09h1.1Zm-1.05,4.34v-2.82c-.34.61-.68,1.15-1.01,1.6-.33.46-.64.86-.94,1.22h1.95Z"/><path class="cls-2" d="m139.36,68.74h-.92c.97-1.17,1.45-2.54,1.45-4.1s-.49-2.96-1.46-4.15h.93c.99,1.14,1.49,2.53,1.49,4.16s-.5,2.99-1.49,4.09Z"/></g><rect class="cls-4" x="6.57" y="75.61" width="60.02" height="30.01"/><g class="cls-10"><path class="cls-2" d="m27.91,83.89v-.62c.31.23.66.35,1.04.35.51,0,.76-.17.76-.51,0-.1-.02-.18-.07-.24-.04-.07-.1-.13-.18-.18-.07-.05-.16-.1-.26-.14s-.21-.08-.32-.13c-.16-.06-.3-.13-.42-.19-.12-.06-.22-.14-.3-.22s-.14-.17-.18-.28c-.04-.1-.06-.22-.06-.36,0-.17.04-.32.12-.45.08-.13.18-.24.31-.33s.28-.15.44-.2c.17-.04.34-.07.51-.07.31,0,.59.05.84.16v.58c-.26-.17-.57-.26-.91-.26-.11,0-.21.01-.29.04-.09.02-.16.06-.22.1-.06.04-.11.1-.14.16-.03.06-.05.13-.05.21,0,.09.02.17.05.24.03.06.08.12.15.17s.15.09.24.13c.09.04.2.08.32.13.16.06.3.12.43.19.13.06.23.14.32.22.09.08.16.17.21.28s.07.23.07.38c0,.18-.04.33-.12.46-.08.13-.18.24-.31.33-.13.09-.28.15-.45.19-.17.04-.35.06-.54.06-.37,0-.69-.07-.96-.21Z"/><path class="cls-2" d="m32.86,83.98c-.14.08-.32.11-.54.11-.63,0-.95-.35-.95-1.05v-2.13h-.62v-.49h.62v-.88l.58-.19v1.07h.91v.49h-.91v2.03c0,.24.04.41.12.52.08.1.22.15.41.15.15,0,.27-.04.38-.12v.49Z"/><path class="cls-2" d="m35.51,81c-.1-.08-.25-.12-.44-.12-.25,0-.45.12-.62.35-.17.23-.25.55-.25.95v1.84h-.58v-3.6h.58v.74h.01c.08-.25.21-.45.38-.59.17-.14.36-.21.57-.21.15,0,.26.02.34.05v.6Z"/><path class="cls-2" d="m36.43,79.5c-.1,0-.19-.04-.26-.11s-.11-.16-.11-.27.04-.2.11-.27c.07-.07.16-.11.26-.11s.2.04.27.11c.07.07.11.16.11.27s-.04.19-.11.26c-.07.07-.16.11-.27.11Zm.28,4.52h-.58v-3.6h.58v3.6Z"/><path class="cls-2" d="m40.87,84.02h-.58v-2.05c0-.76-.28-1.15-.84-1.15-.29,0-.53.11-.71.33-.19.22-.28.49-.28.82v2.05h-.58v-3.6h.58v.6h.01c.27-.46.67-.68,1.18-.68.39,0,.7.13.9.38.21.25.31.62.31,1.1v2.2Z"/><path class="cls-2" d="m45.03,83.73c0,1.32-.63,1.98-1.9,1.98-.45,0-.83-.08-1.17-.25v-.58c.41.23.79.34,1.16.34.89,0,1.33-.47,1.33-1.41v-.39h-.01c-.27.46-.69.69-1.24.69-.45,0-.81-.16-1.08-.48-.27-.32-.41-.75-.41-1.29,0-.61.15-1.1.44-1.46.29-.36.7-.54,1.21-.54.48,0,.84.19,1.08.58h.01v-.5h.58v3.31Zm-.58-1.34v-.53c0-.29-.1-.53-.29-.74s-.43-.31-.72-.31c-.36,0-.63.13-.84.39-.2.26-.3.62-.3,1.09,0,.4.1.72.29.96.19.24.45.36.77.36s.59-.11.79-.34.3-.52.3-.88Z"/></g><g><path class="cls-2" d="m29.17,97.33c-.74,0-1.33-.22-1.78-.67-.44-.45-.66-1.04-.66-1.78,0-.81.23-1.44.69-1.89s1.08-.68,1.86-.68,1.33.22,1.75.66c.42.44.63,1.05.63,1.83s-.23,1.38-.68,1.84c-.45.46-1.06.69-1.82.69Zm.05-4.16c-.43,0-.76.15-1.01.45-.25.3-.37.71-.37,1.23s.12.9.38,1.19.58.43,1,.43.76-.14.99-.43c.23-.28.34-.69.34-1.21s-.11-.94-.34-1.22c-.23-.29-.56-.43-.99-.43Z"/><path class="cls-2" d="m32.48,97.07v-1.01c.41.31.86.46,1.35.46.66,0,.98-.19.98-.58,0-.11-.03-.2-.08-.28-.06-.08-.13-.14-.23-.2-.1-.06-.21-.11-.34-.16-.13-.05-.27-.1-.43-.16-.2-.08-.37-.16-.53-.25-.16-.09-.29-.19-.39-.3s-.18-.24-.24-.38c-.05-.14-.08-.31-.08-.49,0-.23.05-.44.16-.61s.26-.33.44-.45c.18-.12.39-.21.63-.27s.48-.09.73-.09c.44,0,.84.07,1.19.2v.95c-.34-.23-.73-.35-1.16-.35-.14,0-.26.01-.37.04-.11.03-.21.07-.28.12-.08.05-.14.11-.18.18-.04.07-.07.15-.07.23,0,.1.02.19.07.26s.11.14.2.19c.09.05.19.1.31.15.12.05.26.09.42.15.21.08.39.17.56.26s.3.19.42.3c.12.11.21.24.27.38s.09.32.09.52c0,.24-.06.46-.17.64-.11.18-.26.33-.45.45-.19.12-.4.21-.65.27-.25.06-.5.09-.78.09-.52,0-.98-.09-1.36-.26Z"/><path class="cls-2" d="m41.19,97.22h-1.09v-2.63c0-.95-.32-1.43-.95-1.43-.32,0-.59.14-.81.41-.22.27-.33.63-.33,1.05v2.58h-1.09v-7.11h1.09v3.1h.02c.36-.61.88-.91,1.56-.91,1.07,0,1.6.65,1.6,1.96v2.96Z"/><path class="cls-2" d="m46.2,97.22h-1.05v-.75h-.02c-.33.58-.82.86-1.46.86-.47,0-.84-.13-1.11-.38-.27-.26-.4-.6-.4-1.02,0-.91.52-1.44,1.57-1.58l1.42-.2c0-.68-.33-1.03-.97-1.03-.57,0-1.09.2-1.55.59v-.95c.51-.3,1.09-.45,1.75-.45,1.21,0,1.82.6,1.82,1.79v3.12Zm-1.05-2.36l-1.01.14c-.31.04-.55.12-.71.23-.16.11-.24.31-.24.58,0,.2.07.37.22.5.15.13.34.19.58.19.33,0,.61-.12.82-.35.22-.23.33-.53.33-.88v-.42Z"/></g><rect class="cls-4" x="66.59" y="75.61" width="60.02" height="30.01"/><g class="cls-10"><path class="cls-2" d="m87.94,83.89v-.62c.31.23.66.35,1.04.35.51,0,.76-.17.76-.51,0-.1-.02-.18-.07-.24-.04-.07-.1-.13-.18-.18-.07-.05-.16-.1-.26-.14s-.21-.08-.32-.13c-.16-.06-.3-.13-.42-.19-.12-.06-.22-.14-.3-.22s-.14-.17-.18-.28c-.04-.1-.06-.22-.06-.36,0-.17.04-.32.12-.45.08-.13.18-.24.31-.33.13-.09.28-.15.44-.2.17-.04.34-.07.51-.07.31,0,.59.05.84.16v.58c-.27-.17-.57-.26-.92-.26-.11,0-.21.01-.29.04-.09.02-.16.06-.22.1-.06.04-.11.1-.14.16-.03.06-.05.13-.05.21,0,.09.02.17.05.24.03.06.08.12.15.17s.15.09.24.13c.09.04.2.08.32.13.16.06.3.12.43.19s.23.14.32.22c.09.08.16.17.21.28s.07.23.07.38c0,.18-.04.33-.12.46-.08.13-.18.24-.31.33-.13.09-.28.15-.45.19-.17.04-.35.06-.54.06-.37,0-.69-.07-.96-.21Z"/><path class="cls-2" d="m92.88,83.98c-.14.08-.31.11-.54.11-.63,0-.95-.35-.95-1.05v-2.13h-.62v-.49h.62v-.88l.58-.19v1.07h.91v.49h-.91v2.03c0,.24.04.41.12.52.08.1.22.15.41.15.15,0,.27-.04.38-.12v.49Z"/><path class="cls-2" d="m95.53,81c-.1-.08-.25-.12-.44-.12-.25,0-.45.12-.62.35-.17.23-.25.55-.25.95v1.84h-.58v-3.6h.58v.74h.01c.08-.25.21-.45.38-.59.17-.14.36-.21.57-.21.15,0,.26.02.34.05v.6Z"/><path class="cls-2" d="m96.45,79.5c-.1,0-.19-.04-.26-.11-.07-.07-.11-.16-.11-.27s.04-.2.11-.27c.07-.07.16-.11.26-.11s.2.04.27.11c.07.07.11.16.11.27s-.04.19-.11.26c-.07.07-.16.11-.27.11Zm.28,4.52h-.58v-3.6h.58v3.6Z"/><path class="cls-2" d="m100.89,84.02h-.58v-2.05c0-.76-.28-1.15-.84-1.15-.29,0-.53.11-.72.33-.19.22-.28.49-.28.82v2.05h-.58v-3.6h.58v.6h.01c.27-.46.67-.68,1.18-.68.39,0,.7.13.9.38.21.25.31.62.31,1.1v2.2Z"/><path class="cls-2" d="m105.05,83.73c0,1.32-.63,1.98-1.9,1.98-.45,0-.83-.08-1.17-.25v-.58c.41.23.79.34,1.16.34.89,0,1.33-.47,1.33-1.41v-.39h-.01c-.27.46-.69.69-1.24.69-.45,0-.81-.16-1.08-.48-.27-.32-.41-.75-.41-1.29,0-.61.15-1.1.44-1.46.29-.36.7-.54,1.21-.54.49,0,.84.19,1.08.58h.01v-.5h.58v3.31Zm-.58-1.34v-.53c0-.29-.1-.53-.29-.74s-.43-.31-.72-.31c-.36,0-.64.13-.84.39-.2.26-.3.62-.3,1.09,0,.4.1.72.29.96.19.24.45.36.77.36s.59-.11.79-.34c.2-.23.3-.52.3-.88Z"/></g><g><path class="cls-2" d="m90.51,97.22h-1.09v-2.71c0-.9-.32-1.35-.95-1.35-.33,0-.61.12-.82.37s-.32.56-.32.94v2.74h-1.09v-4.8h1.09v.8h.02c.36-.61.88-.91,1.56-.91.52,0,.92.17,1.2.51.27.34.41.83.41,1.47v2.94Z"/><path class="cls-2" d="m93.96,97.33c-.74,0-1.33-.22-1.77-.67-.44-.45-.66-1.04-.66-1.78,0-.81.23-1.44.69-1.89.46-.45,1.08-.68,1.86-.68s1.33.22,1.75.66c.42.44.63,1.05.63,1.83s-.23,1.38-.68,1.84c-.45.46-1.06.69-1.82.69Zm.05-4.16c-.42,0-.76.15-1.01.45-.25.3-.37.71-.37,1.23s.12.9.38,1.19.58.43,1,.43.76-.14.99-.43c.23-.28.34-.69.34-1.21s-.12-.94-.34-1.22c-.23-.29-.56-.43-.99-.43Z"/><path class="cls-2" d="m101.94,97.22h-1.09v-.82h-.02c-.35.62-.89.93-1.62.93-.59,0-1.06-.21-1.42-.64s-.53-1.02-.53-1.76c0-.79.2-1.43.59-1.91.39-.48.92-.72,1.57-.72s1.12.26,1.41.78h.02v-2.97h1.09v7.11Zm-1.07-2.19v-.63c0-.34-.11-.63-.33-.87-.22-.24-.5-.36-.85-.36-.41,0-.73.15-.96.46-.23.3-.35.72-.35,1.26,0,.49.11.87.34,1.16.22.28.52.42.9.42s.67-.14.91-.41c.23-.27.35-.62.35-1.03Z"/><path class="cls-2" d="m107.04,97.22h-1.05v-.75h-.02c-.33.58-.82.86-1.46.86-.47,0-.84-.13-1.11-.38-.27-.26-.4-.6-.4-1.02,0-.91.52-1.44,1.57-1.58l1.43-.2c0-.68-.33-1.03-.98-1.03-.57,0-1.09.2-1.55.59v-.95c.51-.3,1.09-.45,1.75-.45,1.21,0,1.82.6,1.82,1.79v3.12Zm-1.05-2.36l-1.01.14c-.31.04-.55.12-.71.23-.16.11-.24.31-.24.58,0,.2.07.37.22.5.15.13.34.19.58.19.33,0,.61-.12.82-.35.22-.23.33-.53.33-.88v-.42Z"/></g><rect class="cls-4" x="126.61" y="75.61" width="60.02" height="30.01"/><g class="cls-10"><path class="cls-2" d="m147.96,83.89v-.62c.31.23.66.35,1.04.35.51,0,.76-.17.76-.51,0-.1-.02-.18-.07-.24-.04-.07-.1-.13-.18-.18-.07-.05-.16-.1-.26-.14s-.21-.08-.32-.13c-.16-.06-.3-.13-.42-.19-.12-.06-.22-.14-.3-.22s-.14-.17-.18-.28c-.04-.1-.06-.22-.06-.36,0-.17.04-.32.12-.45.08-.13.18-.24.31-.33.13-.09.28-.15.44-.2.17-.04.34-.07.51-.07.31,0,.59.05.84.16v.58c-.27-.17-.57-.26-.92-.26-.11,0-.21.01-.29.04-.09.02-.16.06-.22.1-.06.04-.11.1-.14.16-.03.06-.05.13-.05.21,0,.09.02.17.05.24.03.06.08.12.15.17s.15.09.24.13c.09.04.2.08.32.13.16.06.3.12.43.19s.23.14.32.22c.09.08.16.17.21.28s.07.23.07.38c0,.18-.04.33-.12.46-.08.13-.18.24-.31.33-.13.09-.28.15-.45.19-.17.04-.35.06-.54.06-.37,0-.69-.07-.96-.21Z"/><path class="cls-2" d="m152.9,83.98c-.14.08-.31.11-.54.11-.63,0-.95-.35-.95-1.05v-2.13h-.62v-.49h.62v-.88l.58-.19v1.07h.91v.49h-.91v2.03c0,.24.04.41.12.52.08.1.22.15.41.15.15,0,.27-.04.38-.12v.49Z"/><path class="cls-2" d="m155.55,81c-.1-.08-.25-.12-.44-.12-.25,0-.45.12-.62.35-.17.23-.25.55-.25.95v1.84h-.58v-3.6h.58v.74h.01c.08-.25.21-.45.38-.59.17-.14.36-.21.57-.21.15,0,.26.02.34.05v.6Z"/><path class="cls-2" d="m156.47,79.5c-.1,0-.19-.04-.26-.11-.07-.07-.11-.16-.11-.27s.04-.2.11-.27c.07-.07.16-.11.26-.11s.2.04.27.11c.07.07.11.16.11.27s-.04.19-.11.26c-.07.07-.16.11-.27.11Zm.28,4.52h-.58v-3.6h.58v3.6Z"/><path class="cls-2" d="m160.91,84.02h-.58v-2.05c0-.76-.28-1.15-.84-1.15-.29,0-.53.11-.72.33-.19.22-.28.49-.28.82v2.05h-.58v-3.6h.58v.6h.01c.27-.46.67-.68,1.18-.68.39,0,.7.13.9.38.21.25.31.62.31,1.1v2.2Z"/><path class="cls-2" d="m165.07,83.73c0,1.32-.63,1.98-1.9,1.98-.45,0-.83-.08-1.17-.25v-.58c.41.23.79.34,1.16.34.89,0,1.33-.47,1.33-1.41v-.39h-.01c-.27.46-.69.69-1.24.69-.45,0-.81-.16-1.08-.48-.27-.32-.41-.75-.41-1.29,0-.61.15-1.1.44-1.46.29-.36.7-.54,1.21-.54.49,0,.84.19,1.08.58h.01v-.5h.58v3.31Zm-.58-1.34v-.53c0-.29-.1-.53-.29-.74s-.43-.31-.72-.31c-.36,0-.64.13-.84.39-.2.26-.3.62-.3,1.09,0,.4.1.72.29.96.19.24.45.36.77.36s.59-.11.79-.34c.2-.23.3-.52.3-.88Z"/></g><g><path class="cls-2" d="m150.05,97.22h-1.38l-1.87-2.31h-.02v2.31h-1.09v-7.11h1.09v4.51h.02l1.76-2.2h1.31l-1.98,2.32,2.16,2.49Z"/><path class="cls-2" d="m154.42,97.22h-1.05v-.75h-.02c-.33.58-.82.86-1.46.86-.47,0-.84-.13-1.11-.38-.27-.26-.4-.6-.4-1.02,0-.91.52-1.44,1.57-1.58l1.43-.2c0-.68-.33-1.03-.98-1.03-.57,0-1.09.2-1.55.59v-.95c.51-.3,1.09-.45,1.75-.45,1.21,0,1.82.6,1.82,1.79v3.12Zm-1.05-2.36l-1.01.14c-.31.04-.55.12-.71.23-.16.11-.24.31-.24.58,0,.2.07.37.22.5.15.13.34.19.58.19.33,0,.61-.12.82-.35.22-.23.33-.53.33-.88v-.42Z"/><path class="cls-2" d="m158.28,97.17c-.21.11-.49.16-.84.16-.93,0-1.4-.45-1.4-1.34v-2.71h-.8v-.85h.8v-1.11l1.09-.31v1.42h1.15v.85h-1.15v2.4c0,.28.05.49.15.61.1.12.28.18.52.18.18,0,.34-.05.48-.16v.86Z"/><path class="cls-2" d="m158.92,97.07v-1.01c.41.31.85.46,1.35.46.66,0,.98-.19.98-.58,0-.11-.03-.2-.08-.28-.06-.08-.13-.14-.23-.2-.1-.06-.21-.11-.34-.16s-.27-.1-.43-.16c-.2-.08-.37-.16-.53-.25-.16-.09-.29-.19-.39-.3-.11-.11-.18-.24-.24-.38-.05-.14-.08-.31-.08-.49,0-.23.05-.44.16-.61s.26-.33.44-.45c.18-.12.39-.21.63-.27.24-.06.48-.09.73-.09.44,0,.84.07,1.19.2v.95c-.34-.23-.72-.35-1.16-.35-.14,0-.26.01-.37.04-.11.03-.21.07-.28.12-.08.05-.14.11-.18.18-.04.07-.07.15-.07.23,0,.1.02.19.07.26s.11.14.19.19.19.1.31.15.26.09.42.15c.21.08.39.17.56.26s.3.19.42.3c.12.11.21.24.27.38s.09.32.09.52c0,.24-.06.46-.17.64-.11.18-.26.33-.45.45-.19.12-.4.21-.65.27-.25.06-.5.09-.78.09-.53,0-.98-.09-1.36-.26Z"/><path class="cls-2" d="m167.54,97.22h-1.09v-.76h-.02c-.32.58-.81.87-1.47.87-1.13,0-1.7-.68-1.7-2.04v-2.87h1.09v2.76c0,.86.33,1.29,1,1.29.32,0,.59-.12.79-.36.21-.24.31-.55.31-.93v-2.76h1.09v4.8Z"/></g><rect class="cls-4" x="186.63" y="75.61" width="60.02" height="30.01"/><g class="cls-10"><path class="cls-2" d="m207.98,83.89v-.62c.31.23.66.35,1.04.35.51,0,.76-.17.76-.51,0-.1-.02-.18-.07-.24-.04-.07-.1-.13-.18-.18-.07-.05-.16-.1-.26-.14s-.21-.08-.32-.13c-.16-.06-.3-.13-.42-.19-.12-.06-.22-.14-.3-.22s-.14-.17-.18-.28c-.04-.1-.06-.22-.06-.36,0-.17.04-.32.12-.45.08-.13.18-.24.31-.33.13-.09.28-.15.44-.2.17-.04.34-.07.51-.07.31,0,.59.05.84.16v.58c-.27-.17-.57-.26-.92-.26-.11,0-.21.01-.29.04-.09.02-.16.06-.22.1-.06.04-.11.1-.14.16-.03.06-.05.13-.05.21,0,.09.02.17.05.24.03.06.08.12.15.17s.15.09.24.13c.09.04.2.08.32.13.16.06.3.12.43.19s.23.14.32.22c.09.08.16.17.21.28s.07.23.07.38c0,.18-.04.33-.12.46-.08.13-.18.24-.31.33-.13.09-.28.15-.45.19-.17.04-.35.06-.54.06-.37,0-.69-.07-.96-.21Z"/><path class="cls-2" d="m212.92,83.98c-.14.08-.31.11-.54.11-.63,0-.95-.35-.95-1.05v-2.13h-.62v-.49h.62v-.88l.58-.19v1.07h.91v.49h-.91v2.03c0,.24.04.41.12.52.08.1.22.15.41.15.15,0,.27-.04.38-.12v.49Z"/><path class="cls-2" d="m215.57,81c-.1-.08-.25-.12-.44-.12-.25,0-.45.12-.62.35-.17.23-.25.55-.25.95v1.84h-.58v-3.6h.58v.74h.01c.08-.25.21-.45.38-.59.17-.14.36-.21.57-.21.15,0,.26.02.34.05v.6Z"/><path class="cls-2" d="m216.49,79.5c-.1,0-.19-.04-.26-.11-.07-.07-.11-.16-.11-.27s.04-.2.11-.27c.07-.07.16-.11.26-.11s.2.04.27.11c.07.07.11.16.11.27s-.04.19-.11.26c-.07.07-.16.11-.27.11Zm.28,4.52h-.58v-3.6h.58v3.6Z"/><path class="cls-2" d="m220.93,84.02h-.58v-2.05c0-.76-.28-1.15-.84-1.15-.29,0-.53.11-.72.33-.19.22-.28.49-.28.82v2.05h-.58v-3.6h.58v.6h.01c.27-.46.67-.68,1.18-.68.39,0,.7.13.9.38.21.25.31.62.31,1.1v2.2Z"/><path class="cls-2" d="m225.09,83.73c0,1.32-.63,1.98-1.9,1.98-.45,0-.83-.08-1.17-.25v-.58c.41.23.79.34,1.16.34.89,0,1.33-.47,1.33-1.41v-.39h-.01c-.27.46-.69.69-1.24.69-.45,0-.81-.16-1.08-.48-.27-.32-.41-.75-.41-1.29,0-.61.15-1.1.44-1.46.29-.36.7-.54,1.21-.54.49,0,.84.19,1.08.58h.01v-.5h.58v3.31Zm-.58-1.34v-.53c0-.29-.1-.53-.29-.74s-.43-.31-.72-.31c-.36,0-.64.13-.84.39-.2.26-.3.62-.3,1.09,0,.4.1.72.29.96.19.24.45.36.77.36s.59-.11.79-.34c.2-.23.3-.52.3-.88Z"/></g><g><path class="cls-2" d="m210.98,97.22h-1.38l-1.87-2.31h-.02v2.31h-1.09v-7.11h1.09v4.51h.02l1.76-2.2h1.31l-1.98,2.32,2.16,2.49Z"/><path class="cls-2" d="m215.35,97.22h-1.05v-.75h-.02c-.33.58-.82.86-1.46.86-.47,0-.84-.13-1.11-.38-.27-.26-.4-.6-.4-1.02,0-.91.52-1.44,1.57-1.58l1.43-.2c0-.68-.33-1.03-.98-1.03-.57,0-1.09.2-1.55.59v-.95c.51-.3,1.09-.45,1.75-.45,1.21,0,1.82.6,1.82,1.79v3.12Zm-1.05-2.36l-1.01.14c-.31.04-.55.12-.71.23-.16.11-.24.31-.24.58,0,.2.07.37.22.5.15.13.34.19.58.19.33,0,.61-.12.82-.35.22-.23.33-.53.33-.88v-.42Z"/><path class="cls-2" d="m221.05,96.84c0,1.76-.89,2.64-2.66,2.64-.63,0-1.17-.1-1.64-.31v-.99c.53.3,1.02.45,1.5.45,1.14,0,1.71-.56,1.71-1.68v-.53h-.02c-.36.61-.9.92-1.62.92-.58,0-1.06-.21-1.41-.64-.36-.43-.54-1-.54-1.72,0-.82.19-1.46.58-1.95.38-.48.91-.72,1.58-.72.63,0,1.1.26,1.41.78h.02v-.67h1.09v4.42Zm-1.08-1.81v-.62c0-.34-.11-.63-.33-.87-.22-.24-.5-.36-.84-.36-.41,0-.74.15-.97.46-.23.31-.35.73-.35,1.28,0,.47.11.85.34,1.13.22.28.52.42.89.42s.68-.14.92-.41.35-.62.35-1.04Z"/><path class="cls-2" d="m226.65,97.22h-1.09v-.76h-.02c-.32.58-.81.87-1.47.87-1.13,0-1.7-.68-1.7-2.04v-2.87h1.09v2.76c0,.86.33,1.29,1,1.29.32,0,.59-.12.79-.36.21-.24.31-.55.31-.93v-2.76h1.09v4.8Z"/></g><rect class="cls-6" x="270.67" y="16.19" width="60.02" height="30.01"/><g class="cls-10"><path class="cls-2" d="m284.67,24.59h-2.62v-5.04h.59v4.51h2.03v.53Z"/><path class="cls-2" d="m285.66,20.08c-.1,0-.19-.04-.26-.11-.07-.07-.11-.16-.11-.27s.04-.2.11-.27c.07-.07.16-.11.26-.11s.2.04.27.11c.07.07.11.16.11.27s-.04.19-.11.26c-.07.07-.16.11-.27.11Zm.28,4.52h-.58v-3.6h.58v3.6Z"/><path class="cls-2" d="m286.9,24.46v-.62c.31.23.66.35,1.04.35.51,0,.76-.17.76-.51,0-.1-.02-.18-.07-.24-.04-.07-.1-.13-.18-.18-.07-.05-.16-.1-.26-.14s-.21-.08-.32-.13c-.16-.06-.3-.13-.42-.19-.12-.06-.22-.14-.3-.22s-.14-.17-.18-.28c-.04-.1-.06-.22-.06-.36,0-.17.04-.32.12-.45.08-.13.18-.24.31-.33.13-.09.28-.15.44-.2.17-.04.34-.07.51-.07.31,0,.59.05.84.16v.58c-.27-.17-.57-.26-.92-.26-.11,0-.21.01-.29.04-.09.02-.16.06-.22.1-.06.04-.11.1-.14.16-.03.06-.05.13-.05.21,0,.09.02.17.05.24.03.06.08.12.15.17s.15.09.24.13c.09.04.2.08.32.13.16.06.3.12.43.19s.23.14.32.22c.09.08.16.17.21.28s.07.23.07.38c0,.18-.04.33-.12.46-.08.13-.18.24-.31.33-.13.09-.28.15-.45.19-.17.04-.35.06-.54.06-.37,0-.69-.07-.96-.21Z"/><path class="cls-2" d="m291.84,24.56c-.14.08-.31.11-.54.11-.63,0-.95-.35-.95-1.05v-2.13h-.62v-.49h.62v-.88l.58-.19v1.07h.91v.49h-.91v2.03c0,.24.04.41.12.52.08.1.22.15.41.15.15,0,.27-.04.38-.12v.49Z"/><path class="cls-2" d="m296.01,24.15l-3.02-1.52v-.21l3.02-1.7v.53l-2.26,1.25h0s2.26,1.12,2.26,1.12v.52Z"/><path class="cls-2" d="m297.32,24.46v-.62c.31.23.66.35,1.04.35.51,0,.76-.17.76-.51,0-.1-.02-.18-.07-.24-.04-.07-.1-.13-.18-.18-.07-.05-.16-.1-.26-.14s-.21-.08-.32-.13c-.16-.06-.3-.13-.42-.19-.12-.06-.22-.14-.3-.22s-.14-.17-.18-.28c-.04-.1-.06-.22-.06-.36,0-.17.04-.32.12-.45.08-.13.18-.24.31-.33.13-.09.28-.15.44-.2.17-.04.34-.07.51-.07.31,0,.59.05.84.16v.58c-.27-.17-.57-.26-.92-.26-.11,0-.21.01-.29.04-.09.02-.16.06-.22.1-.06.04-.11.1-.14.16-.03.06-.05.13-.05.21,0,.09.02.17.05.24.03.06.08.12.15.17s.15.09.24.13c.09.04.2.08.32.13.16.06.3.12.43.19s.23.14.32.22c.09.08.16.17.21.28s.07.23.07.38c0,.18-.04.33-.12.46-.08.13-.18.24-.31.33-.13.09-.28.15-.45.19-.17.04-.35.06-.54.06-.37,0-.69-.07-.96-.21Z"/><path class="cls-2" d="m302.26,24.56c-.14.08-.31.11-.54.11-.63,0-.95-.35-.95-1.05v-2.13h-.62v-.49h.62v-.88l.58-.19v1.07h.91v.49h-.91v2.03c0,.24.04.41.12.52.08.1.22.15.41.15.15,0,.27-.04.38-.12v.49Z"/><path class="cls-2" d="m304.91,21.58c-.1-.08-.25-.12-.44-.12-.25,0-.45.12-.62.35-.17.23-.25.55-.25.95v1.84h-.58v-3.6h.58v.74h.01c.08-.25.21-.45.38-.59.17-.14.36-.21.57-.21.15,0,.26.02.34.05v.6Z"/><path class="cls-2" d="m305.83,20.08c-.1,0-.19-.04-.26-.11-.07-.07-.11-.16-.11-.27s.04-.2.11-.27c.07-.07.16-.11.26-.11s.2.04.27.11c.07.07.11.16.11.27s-.04.19-.11.26c-.07.07-.16.11-.27.11Zm.28,4.52h-.58v-3.6h.58v3.6Z"/><path class="cls-2" d="m310.27,24.59h-.58v-2.05c0-.76-.28-1.15-.84-1.15-.29,0-.53.11-.72.33-.19.22-.28.49-.28.82v2.05h-.58v-3.6h.58v.6h.01c.27-.46.67-.68,1.18-.68.39,0,.7.13.9.38.21.25.31.62.31,1.1v2.2Z"/><path class="cls-2" d="m314.43,24.31c0,1.32-.63,1.98-1.9,1.98-.45,0-.83-.08-1.17-.25v-.58c.41.23.79.34,1.16.34.89,0,1.33-.47,1.33-1.41v-.39h-.01c-.27.46-.69.69-1.24.69-.45,0-.81-.16-1.08-.48-.27-.32-.41-.75-.41-1.29,0-.61.15-1.1.44-1.46.29-.36.7-.54,1.21-.54.49,0,.84.19,1.08.58h.01v-.5h.58v3.31Zm-.58-1.34v-.53c0-.29-.1-.53-.29-.74s-.43-.31-.72-.31c-.36,0-.64.13-.84.39-.2.26-.3.62-.3,1.09,0,.4.1.72.29.96.19.24.45.36.77.36s.59-.11.79-.34c.2-.23.3-.52.3-.88Z"/><path class="cls-2" d="m319,22.63l-3.02,1.52v-.52l2.26-1.1v-.02l-2.26-1.25v-.53l3.02,1.7v.21Z"/></g><g><path class="cls-2" d="m296.03,34.03c-.13-.1-.32-.15-.57-.15-.32,0-.59.15-.81.44-.21.29-.32.69-.32,1.19v2.3h-1.09v-4.8h1.09v.99h.02c.11-.34.27-.6.49-.79.22-.19.47-.28.74-.28.2,0,.35.03.45.09v1.03Z"/><path class="cls-2" d="m300.86,35.69h-3.27c.01.44.15.79.41,1.03.26.24.62.36,1.08.36.51,0,.98-.15,1.41-.46v.88c-.44.28-1.02.41-1.74.41s-1.26-.22-1.66-.65-.6-1.05-.6-1.84c0-.75.22-1.36.66-1.83.44-.47.99-.71,1.65-.71s1.17.21,1.52.63.54,1.01.54,1.76v.42Zm-1.05-.77c0-.39-.1-.69-.28-.91-.18-.22-.43-.33-.75-.33s-.58.11-.79.34c-.22.23-.35.53-.4.9h2.22Z"/><path class="cls-2" d="m301.6,37.65v-1.01c.41.31.85.46,1.35.46.66,0,.98-.19.98-.58,0-.11-.03-.2-.08-.28-.06-.08-.13-.14-.23-.2-.1-.06-.21-.11-.34-.16s-.27-.1-.43-.16c-.2-.08-.37-.16-.53-.25-.16-.09-.29-.19-.39-.3-.11-.11-.18-.24-.24-.38-.05-.14-.08-.31-.08-.49,0-.23.05-.44.16-.61s.26-.33.44-.45c.18-.12.39-.21.63-.27.24-.06.48-.09.73-.09.44,0,.84.07,1.19.2v.95c-.34-.23-.72-.35-1.16-.35-.14,0-.26.01-.37.04-.11.03-.21.07-.28.12-.08.05-.14.11-.18.18-.04.07-.07.15-.07.23,0,.1.02.19.07.26s.11.14.19.19.19.1.31.15.26.09.42.15c.21.08.39.17.56.26s.3.19.42.3c.12.11.21.24.27.38s.09.32.09.52c0,.24-.06.46-.17.64-.11.18-.26.33-.45.45-.19.12-.4.21-.65.27-.25.06-.5.09-.78.09-.53,0-.98-.09-1.36-.26Z"/><path class="cls-2" d="m308.57,37.75c-.21.11-.49.16-.84.16-.93,0-1.4-.45-1.4-1.34v-2.71h-.8v-.85h.8v-1.11l1.09-.31v1.42h1.15v.85h-1.15v2.4c0,.28.05.49.15.61.1.12.28.18.52.18.18,0,.34-.05.48-.16v.86Z"/></g><rect class="cls-9" x="-182.5" y="-135.06" width="538.4" height="784.49"/><g class="cls-5"><rect class="cls-1" x="272.47" y="48" width="60.02" height="30.01"/></g><rect class="cls-9" x="-182.5" y="-135.06" width="538.4" height="784.49"/><rect class="cls-11" x="270.67" y="46.2" width="60.02" height="30.01"/><g class="cls-10"><path class="cls-2" d="m284.67,54.61h-2.62v-5.04h.59v4.51h2.03v.53Z"/><path class="cls-2" d="m285.66,50.09c-.1,0-.19-.04-.26-.11-.07-.07-.11-.16-.11-.27s.04-.2.11-.27c.07-.07.16-.11.26-.11s.2.04.27.11c.07.07.11.16.11.27s-.04.19-.11.26c-.07.07-.16.11-.27.11Zm.28,4.52h-.58v-3.6h.58v3.6Z"/><path class="cls-2" d="m286.9,54.48v-.62c.31.23.66.35,1.04.35.51,0,.76-.17.76-.51,0-.1-.02-.18-.07-.24-.04-.07-.1-.13-.18-.18-.07-.05-.16-.1-.26-.14s-.21-.08-.32-.13c-.16-.06-.3-.13-.42-.19-.12-.06-.22-.14-.3-.22s-.14-.17-.18-.28c-.04-.1-.06-.22-.06-.36,0-.17.04-.32.12-.45.08-.13.18-.24.31-.33.13-.09.28-.15.44-.2.17-.04.34-.07.51-.07.31,0,.59.05.84.16v.58c-.27-.17-.57-.26-.92-.26-.11,0-.21.01-.29.04-.09.02-.16.06-.22.1-.06.04-.11.1-.14.16-.03.06-.05.13-.05.21,0,.09.02.17.05.24.03.06.08.12.15.17s.15.09.24.13c.09.04.2.08.32.13.16.06.3.12.43.19s.23.14.32.22c.09.08.16.17.21.28s.07.23.07.38c0,.18-.04.33-.12.46-.08.13-.18.24-.31.33-.13.09-.28.15-.45.19-.17.04-.35.06-.54.06-.37,0-.69-.07-.96-.21Z"/><path class="cls-2" d="m291.84,54.57c-.14.08-.31.11-.54.11-.63,0-.95-.35-.95-1.05v-2.13h-.62v-.49h.62v-.88l.58-.19v1.07h.91v.49h-.91v2.03c0,.24.04.41.12.52.08.1.22.15.41.15.15,0,.27-.04.38-.12v.49Z"/><path class="cls-2" d="m296.01,54.16l-3.02-1.52v-.21l3.02-1.7v.53l-2.26,1.25h0s2.26,1.12,2.26,1.12v.52Z"/><path class="cls-2" d="m297.32,54.48v-.62c.31.23.66.35,1.04.35.51,0,.76-.17.76-.51,0-.1-.02-.18-.07-.24-.04-.07-.1-.13-.18-.18-.07-.05-.16-.1-.26-.14s-.21-.08-.32-.13c-.16-.06-.3-.13-.42-.19-.12-.06-.22-.14-.3-.22s-.14-.17-.18-.28c-.04-.1-.06-.22-.06-.36,0-.17.04-.32.12-.45.08-.13.18-.24.31-.33.13-.09.28-.15.44-.2.17-.04.34-.07.51-.07.31,0,.59.05.84.16v.58c-.27-.17-.57-.26-.92-.26-.11,0-.21.01-.29.04-.09.02-.16.06-.22.1-.06.04-.11.1-.14.16-.03.06-.05.13-.05.21,0,.09.02.17.05.24.03.06.08.12.15.17s.15.09.24.13c.09.04.2.08.32.13.16.06.3.12.43.19s.23.14.32.22c.09.08.16.17.21.28s.07.23.07.38c0,.18-.04.33-.12.46-.08.13-.18.24-.31.33-.13.09-.28.15-.45.19-.17.04-.35.06-.54.06-.37,0-.69-.07-.96-.21Z"/><path class="cls-2" d="m302.26,54.57c-.14.08-.31.11-.54.11-.63,0-.95-.35-.95-1.05v-2.13h-.62v-.49h.62v-.88l.58-.19v1.07h.91v.49h-.91v2.03c0,.24.04.41.12.52.08.1.22.15.41.15.15,0,.27-.04.38-.12v.49Z"/><path class="cls-2" d="m304.91,51.59c-.1-.08-.25-.12-.44-.12-.25,0-.45.12-.62.35-.17.23-.25.55-.25.95v1.84h-.58v-3.6h.58v.74h.01c.08-.25.21-.45.38-.59.17-.14.36-.21.57-.21.15,0,.26.02.34.05v.6Z"/><path class="cls-2" d="m305.83,50.09c-.1,0-.19-.04-.26-.11-.07-.07-.11-.16-.11-.27s.04-.2.11-.27c.07-.07.16-.11.26-.11s.2.04.27.11c.07.07.11.16.11.27s-.04.19-.11.26c-.07.07-.16.11-.27.11Zm.28,4.52h-.58v-3.6h.58v3.6Z"/><path class="cls-2" d="m310.27,54.61h-.58v-2.05c0-.76-.28-1.15-.84-1.15-.29,0-.53.11-.72.33-.19.22-.28.49-.28.82v2.05h-.58v-3.6h.58v.6h.01c.27-.46.67-.68,1.18-.68.39,0,.7.13.9.38.21.25.31.62.31,1.1v2.2Z"/><path class="cls-2" d="m314.43,54.32c0,1.32-.63,1.98-1.9,1.98-.45,0-.83-.08-1.17-.25v-.58c.41.23.79.34,1.16.34.89,0,1.33-.47,1.33-1.41v-.39h-.01c-.27.46-.69.69-1.24.69-.45,0-.81-.16-1.08-.48-.27-.32-.41-.75-.41-1.29,0-.61.15-1.1.44-1.46.29-.36.7-.54,1.21-.54.49,0,.84.19,1.08.58h.01v-.5h.58v3.31Zm-.58-1.34v-.53c0-.29-.1-.53-.29-.74s-.43-.31-.72-.31c-.36,0-.64.13-.84.39-.2.26-.3.62-.3,1.09,0,.4.1.72.29.96.19.24.45.36.77.36s.59-.11.79-.34c.2-.23.3-.52.3-.88Z"/><path class="cls-2" d="m319,52.64l-3.02,1.52v-.52l2.26-1.1v-.02l-2.26-1.25v-.53l3.02,1.7v.21Z"/></g><g><path class="cls-2" d="m290.31,67.81h-3.72v-6.72h1.12v5.78h2.61v.94Z"/><path class="cls-2" d="m292.42,67.81h-1.15v-6.72h1.15v6.72Z"/><path class="cls-2" d="m293.77,67.54v-1.15c.1.09.23.18.37.25.14.08.29.14.45.19.16.05.32.09.48.12.16.03.31.04.44.04.47,0,.82-.08,1.05-.23.23-.16.34-.38.34-.68,0-.16-.04-.3-.12-.42-.08-.12-.18-.22-.32-.32-.14-.1-.3-.19-.49-.28-.19-.09-.39-.18-.6-.28-.23-.12-.44-.25-.64-.37-.2-.12-.37-.26-.51-.42-.15-.15-.26-.32-.34-.51-.08-.19-.12-.41-.12-.67,0-.32.07-.59.21-.82.14-.23.33-.42.56-.58.23-.15.5-.26.79-.34.3-.07.6-.11.91-.11.7,0,1.22.08,1.54.24v1.1c-.38-.28-.87-.41-1.47-.41-.17,0-.33.02-.5.05s-.31.08-.44.15c-.13.07-.24.16-.32.28-.08.11-.12.25-.12.41,0,.15.03.28.09.39s.15.21.27.3c.12.09.27.18.44.27s.37.18.6.28c.23.12.46.25.66.38.21.13.39.28.55.45.16.16.28.34.38.54.09.2.14.42.14.68,0,.34-.07.63-.21.86s-.32.43-.56.57c-.23.15-.5.25-.8.32-.3.07-.62.1-.96.1-.11,0-.25,0-.42-.03-.16-.02-.33-.04-.5-.08s-.33-.07-.49-.12-.28-.1-.37-.16Z"/></g><g><path class="cls-2" d="m303.53,62.03h-1.93v5.78h-1.12v-5.78h-1.93v-.95h4.98v.95Z"/><path class="cls-2" d="m306.78,69.34h-.92c-.99-1.11-1.48-2.47-1.48-4.09s.49-3.02,1.48-4.16h.92c-.97,1.19-1.45,2.57-1.45,4.15s.48,2.93,1.45,4.1Z"/><path class="cls-2" d="m311.21,61.09v4.34h1v.91h-1v1.48h-1.05v-1.48h-3.04v-.91c.27-.31.56-.64.85-1.01.29-.36.57-.73.83-1.11.27-.38.52-.75.74-1.13.23-.38.42-.74.58-1.09h1.1Zm-1.05,4.34v-2.82c-.34.61-.68,1.15-1.01,1.6-.33.46-.64.86-.94,1.22h1.95Z"/><path class="cls-2" d="m313.42,69.34h-.92c.97-1.17,1.45-2.54,1.45-4.1s-.49-2.96-1.46-4.15h.93c.99,1.14,1.49,2.53,1.49,4.16s-.5,2.99-1.49,4.09Z"/></g><rect class="cls-7" x="271.27" y="46.8" width="58.82" height="28.81"/><rect class="cls-9" x="-182.5" y="-135.06" width="538.4" height="784.49"/><rect class="cls-9" x="-182.5" y="-135.06" width="538.4" height="784.49"/><rect class="cls-9" x="-182.5" y="-135.06" width="538.4" height="784.49"/><rect class="cls-9" x="-182.5" y="-135.06" width="538.4" height="784.49"/><rect class="cls-9" x="-182.5" y="-135.06" width="538.4" height="784.49"/></svg>