<?xml version="1.0" encoding="UTF-8"?><svg id="keisan_junjo" xmlns="http://www.w3.org/2000/svg" xmlns:xlink="http://www.w3.org/1999/xlink" viewBox="0 0 394.48 114.19"><defs><style>.cls-1{fill:#fff;}.cls-2{fill:#f6f6f6;}.cls-3{fill:#5d8cd4;}.cls-4{fill:#40a5a8;}.cls-5{clip-path:url(#clippath);}.cls-6{opacity:.7;}.cls-7{fill:none;}</style><clipPath id="clippath"><rect class="cls-7" x="-138.6" y="-108.81" width="784.8" height="538.2"/></clipPath></defs><g class="cls-5"><rect class="cls-2" x="-138.6" y="-84.81" width="784.8" height="538.2"/><rect class="cls-4" x="67.2" y="12.39" width="90" height="30"/><g class="cls-6"><path class="cls-1" d="m108.33,16.28c-.1,0-.19-.04-.26-.11-.07-.07-.11-.16-.11-.27s.04-.2.11-.27c.07-.07.16-.11.26-.11s.2.04.27.11c.07.07.11.16.11.27s-.04.19-.11.26c-.07.07-.16.11-.27.11Zm.28,4.51h-.58v-3.6h.58v3.6Z"/><path class="cls-1" d="m112.54,19.36c0,.23-.04.43-.13.62-.08.19-.21.35-.36.48-.16.13-.34.23-.56.31s-.46.11-.72.11c-.48,0-.86-.09-1.15-.27v-.62c.34.27.73.4,1.17.4.18,0,.33-.02.48-.07.14-.04.26-.11.37-.19s.18-.19.24-.31c.06-.12.08-.25.08-.4,0-.66-.47-.99-1.41-.99h-.42v-.49h.4c.83,0,1.25-.31,1.25-.93,0-.57-.32-.86-.95-.86-.36,0-.69.12-1,.36v-.56c.32-.19.7-.29,1.15-.29.21,0,.4.03.57.09s.32.14.44.25.22.23.28.38c.07.15.1.31.1.49,0,.66-.33,1.09-1,1.28h0c.17.03.33.07.47.14s.27.15.38.25.19.22.25.36.09.29.09.46Z"/><path class="cls-1" d="m115.79,17.07c0-.15-.02-.29-.07-.4-.05-.11-.11-.21-.2-.29s-.18-.13-.29-.17c-.11-.04-.23-.06-.37-.06-.11,0-.22.02-.33.05-.11.03-.21.07-.32.13-.1.05-.2.12-.29.19s-.18.16-.27.25v-.62c.16-.16.34-.28.54-.36.2-.08.45-.12.73-.12.21,0,.4.03.57.09s.33.15.46.26c.13.12.23.26.3.43.07.17.11.36.11.58,0,.2-.02.38-.07.54-.04.16-.11.31-.21.46-.09.14-.21.28-.35.41s-.31.26-.5.4c-.24.17-.43.31-.58.43s-.28.23-.37.34c-.09.1-.15.21-.19.31-.04.1-.05.22-.05.36h2.51v.52h-3.11v-.25c0-.22.02-.41.07-.57s.12-.32.23-.47c.11-.15.25-.3.42-.44.17-.15.39-.31.64-.5.18-.13.34-.26.46-.38s.22-.24.3-.36c.08-.12.13-.24.16-.36.03-.12.05-.25.05-.39Z"/></g><path class="cls-1" d="m113.95,28.92l-1.29.22.9,1.07-.67.46-.69-1.22-.69,1.22-.67-.46.91-1.07-1.29-.22.27-.75,1.21.48-.15-1.39h.85l-.15,1.39,1.21-.48.26.75Z"/><rect class="cls-4" x="37.2" y="42.39" width="60" height="30"/><g class="cls-6"><path class="cls-1" d="m63.33,46.28c-.1,0-.19-.04-.26-.11-.07-.07-.11-.16-.11-.27s.04-.2.11-.27c.07-.07.16-.11.26-.11s.2.04.27.11c.07.07.11.16.11.27s-.04.19-.11.26c-.07.07-.16.11-.27.11Zm.28,4.51h-.58v-3.6h.58v3.6Z"/><path class="cls-1" d="m67.54,49.36c0,.23-.04.43-.13.62-.08.19-.21.35-.36.48-.16.13-.34.24-.56.31-.22.07-.46.11-.72.11-.48,0-.86-.09-1.15-.27v-.62c.34.27.73.4,1.17.4.18,0,.33-.02.48-.07.14-.04.26-.11.37-.19.1-.08.18-.19.24-.31.06-.12.08-.25.08-.4,0-.66-.47-.99-1.41-.99h-.42v-.49h.4c.83,0,1.25-.31,1.25-.93,0-.57-.32-.86-.95-.86-.36,0-.69.12-1,.36v-.56c.32-.19.7-.29,1.15-.29.21,0,.4.03.57.09s.32.14.44.25.22.23.28.38c.07.15.1.31.1.49,0,.66-.33,1.09-1,1.28h0c.17.03.33.07.47.14s.27.15.38.25c.11.1.19.22.25.36s.09.29.09.46Z"/><path class="cls-1" d="m70.79,47.07c0-.15-.02-.29-.07-.4-.05-.11-.11-.21-.2-.29s-.18-.13-.29-.17c-.11-.04-.23-.06-.37-.06-.11,0-.22.01-.33.04-.11.03-.21.07-.32.13-.1.05-.2.12-.29.19s-.18.16-.27.25v-.62c.16-.16.34-.28.54-.36.2-.08.45-.12.73-.12.21,0,.4.03.57.09s.33.15.46.26c.13.12.23.26.3.43.07.17.11.36.11.58,0,.2-.02.38-.07.54-.04.16-.11.31-.21.46-.09.14-.21.28-.35.41-.14.13-.31.27-.5.4-.24.17-.43.31-.58.43-.15.12-.28.23-.37.33-.09.1-.15.21-.19.31s-.05.22-.05.36h2.51v.52h-3.11v-.25c0-.21.02-.41.07-.57s.12-.32.23-.47c.11-.15.25-.29.42-.44s.39-.31.64-.5c.18-.13.34-.26.46-.38.12-.12.22-.24.3-.36.08-.12.13-.24.16-.36.03-.12.05-.25.05-.39Z"/></g><path class="cls-1" d="m69.44,61.6h-1.85v1.85h-.77v-1.85h-1.85v-.77h1.85v-1.86h.77v1.86h1.85v.77Z"/><rect class="cls-3" x="7.2" y="72.39" width="60" height="30"/><g class="cls-6"><path class="cls-1" d="m33.33,76.28c-.1,0-.19-.04-.26-.11-.07-.07-.11-.16-.11-.27s.04-.2.11-.27c.07-.07.16-.11.26-.11s.2.04.27.11c.07.07.11.16.11.27s-.04.19-.11.26c-.07.07-.16.11-.27.11Zm.28,4.51h-.58v-3.6h.58v3.6Z"/><path class="cls-1" d="m37.54,79.36c0,.23-.04.43-.13.62-.08.19-.21.35-.36.48-.16.13-.34.24-.56.31-.22.07-.46.11-.72.11-.48,0-.86-.09-1.15-.27v-.62c.34.27.73.4,1.17.4.18,0,.33-.02.48-.07.14-.04.26-.11.37-.19.1-.08.18-.19.24-.31.06-.12.08-.25.08-.4,0-.66-.47-.99-1.41-.99h-.42v-.49h.4c.83,0,1.25-.31,1.25-.93,0-.57-.32-.86-.95-.86-.36,0-.69.12-1,.36v-.56c.32-.19.7-.29,1.15-.29.21,0,.4.03.57.09s.32.14.44.25.22.23.28.38c.07.15.1.31.1.49,0,.66-.33,1.09-1,1.28h0c.17.03.33.07.47.14s.27.15.38.25c.11.1.19.22.25.36s.09.29.09.46Z"/><path class="cls-1" d="m40.79,77.07c0-.15-.02-.29-.07-.4-.05-.11-.11-.21-.2-.29s-.18-.13-.29-.17c-.11-.04-.23-.06-.37-.06-.11,0-.22.01-.33.04-.11.03-.21.07-.32.13-.1.05-.2.12-.29.19s-.18.16-.27.25v-.62c.16-.16.34-.28.54-.36.2-.08.45-.12.73-.12.21,0,.4.03.57.09s.33.15.46.26c.13.12.23.26.3.43.07.17.11.36.11.58,0,.2-.02.38-.07.54-.04.16-.11.31-.21.46-.09.14-.21.28-.35.41-.14.13-.31.27-.5.4-.24.17-.43.31-.58.43-.15.12-.28.23-.37.33-.09.1-.15.21-.19.31s-.05.22-.05.36h2.51v.52h-3.11v-.25c0-.21.02-.41.07-.57s.12-.32.23-.47c.11-.15.25-.29.42-.44s.39-.31.64-.5c.18-.13.34-.26.46-.38.12-.12.22-.24.3-.36.08-.12.13-.24.16-.36.03-.12.05-.25.05-.39Z"/></g><path class="cls-1" d="m38.16,87.12v6.87h-1.09v-5.54c-.2.14-.41.26-.64.36-.23.1-.49.18-.78.26v-.93c.18-.06.36-.12.52-.19.17-.07.34-.14.5-.22s.33-.17.5-.27c.17-.1.34-.21.52-.34h.46Z"/><rect class="cls-3" x="67.2" y="72.39" width="60" height="30"/><g class="cls-6"><path class="cls-1" d="m93.33,76.28c-.1,0-.19-.04-.26-.11-.07-.07-.11-.16-.11-.27s.04-.2.11-.27c.07-.07.16-.11.26-.11s.2.04.27.11c.07.07.11.16.11.27s-.04.19-.11.26c-.07.07-.16.11-.27.11Zm.28,4.51h-.58v-3.6h.58v3.6Z"/><path class="cls-1" d="m97.54,79.36c0,.23-.04.43-.13.62-.08.19-.21.35-.36.48-.16.13-.34.24-.56.31-.22.07-.46.11-.72.11-.48,0-.86-.09-1.15-.27v-.62c.34.27.73.4,1.17.4.18,0,.33-.02.48-.07.14-.04.26-.11.37-.19.1-.08.18-.19.24-.31.06-.12.08-.25.08-.4,0-.66-.47-.99-1.41-.99h-.42v-.49h.4c.83,0,1.25-.31,1.25-.93,0-.57-.32-.86-.95-.86-.36,0-.69.12-1,.36v-.56c.32-.19.7-.29,1.15-.29.21,0,.4.03.57.09s.32.14.44.25.22.23.28.38c.07.15.1.31.1.49,0,.66-.33,1.09-1,1.28h0c.17.03.33.07.47.14s.27.15.38.25c.11.1.19.22.25.36s.09.29.09.46Z"/><path class="cls-1" d="m100.79,77.07c0-.15-.02-.29-.07-.4-.05-.11-.11-.21-.2-.29s-.18-.13-.29-.17c-.11-.04-.23-.06-.37-.06-.11,0-.22.01-.33.04-.11.03-.21.07-.32.13-.1.05-.2.12-.29.19s-.18.16-.27.25v-.62c.16-.16.34-.28.54-.36.2-.08.45-.12.73-.12.21,0,.4.03.57.09s.33.15.46.26c.13.12.23.26.3.43.07.17.11.36.11.58,0,.2-.02.38-.07.54-.04.16-.11.31-.21.46-.09.14-.21.28-.35.41-.14.13-.31.27-.5.4-.24.17-.43.31-.58.43-.15.12-.28.23-.37.33-.09.1-.15.21-.19.31s-.05.22-.05.36h2.51v.52h-3.11v-.25c0-.21.02-.41.07-.57s.12-.32.23-.47c.11-.15.25-.29.42-.44s.39-.31.64-.5c.18-.13.34-.26.46-.38.12-.12.22-.24.3-.36.08-.12.13-.24.16-.36.03-.12.05-.25.05-.39Z"/></g><path class="cls-1" d="m99.21,93.99h-4.22v-.52c0-.21.03-.41.09-.6.06-.19.14-.36.24-.52.1-.16.22-.32.35-.46.13-.14.28-.29.43-.42.15-.14.31-.27.47-.39.16-.13.32-.25.47-.38.14-.12.28-.24.39-.36.12-.12.22-.24.3-.36.08-.12.15-.26.2-.4.05-.14.07-.29.07-.45,0-.18-.03-.33-.08-.47s-.13-.24-.23-.33c-.1-.09-.21-.16-.35-.2-.13-.04-.28-.07-.44-.07-.28,0-.55.06-.84.19-.28.13-.56.32-.82.58v-1.05c.14-.1.28-.19.42-.27.14-.08.29-.14.44-.19.15-.05.31-.09.47-.12.17-.03.34-.04.53-.04.3,0,.58.04.82.12.25.08.46.2.63.35.18.15.31.35.41.58.09.23.14.5.14.8,0,.27-.03.52-.1.73s-.16.42-.29.61-.27.37-.45.53c-.18.17-.37.34-.59.52-.18.15-.36.29-.54.43-.18.14-.34.27-.49.41-.14.13-.26.27-.35.4s-.13.27-.13.4v.02h3.03v.93Z"/><rect class="cls-3" x="127.2" y="42.39" width="60" height="30"/><g class="cls-6"><path class="cls-1" d="m153.33,46.28c-.1,0-.19-.04-.26-.11s-.11-.16-.11-.27.04-.2.11-.27c.07-.07.16-.11.26-.11s.2.04.27.11c.07.07.11.16.11.27s-.04.19-.11.26c-.07.07-.16.11-.27.11Zm.28,4.51h-.58v-3.6h.58v3.6Z"/><path class="cls-1" d="m157.54,49.36c0,.23-.04.43-.13.62-.08.19-.21.35-.36.48-.16.13-.34.24-.56.31-.22.07-.46.11-.72.11-.48,0-.86-.09-1.15-.27v-.62c.34.27.73.4,1.17.4.18,0,.33-.02.48-.07.14-.04.26-.11.37-.19.1-.08.18-.19.24-.31.06-.12.08-.25.08-.4,0-.66-.47-.99-1.41-.99h-.42v-.49h.4c.83,0,1.25-.31,1.25-.93,0-.57-.32-.86-.95-.86-.36,0-.69.12-1,.36v-.56c.32-.19.7-.29,1.15-.29.21,0,.4.03.57.09s.32.14.44.25.22.23.28.38.1.31.1.49c0,.66-.34,1.09-1.01,1.28h0c.17.03.33.07.47.14s.27.15.38.25c.11.1.19.22.25.36s.09.29.09.46Z"/><path class="cls-1" d="m160.79,47.07c0-.15-.02-.29-.07-.4-.05-.11-.11-.21-.2-.29s-.18-.13-.29-.17c-.11-.04-.23-.06-.37-.06-.11,0-.22.01-.33.04-.11.03-.21.07-.31.13-.1.05-.2.12-.29.19s-.18.16-.27.25v-.62c.16-.16.34-.28.54-.36s.45-.12.73-.12c.21,0,.4.03.57.09s.33.15.46.26c.13.12.23.26.3.43s.11.36.11.58c0,.2-.02.38-.07.54-.05.16-.11.31-.21.46-.09.14-.21.28-.35.41-.14.13-.31.27-.5.4-.24.17-.43.31-.58.43-.15.12-.28.23-.37.33-.09.1-.15.21-.19.31s-.05.22-.05.36h2.51v.52h-3.11v-.25c0-.21.02-.41.07-.57s.12-.32.23-.47c.11-.15.25-.29.42-.44s.39-.31.64-.5c.18-.13.34-.26.46-.38.12-.12.22-.24.3-.36.08-.12.13-.24.16-.36.03-.12.05-.25.05-.39Z"/></g><path class="cls-1" d="m155.11,63.74v-1.02c.44.35.93.52,1.48.52.45,0,.8-.1,1.07-.3s.4-.48.4-.83c0-.76-.58-1.14-1.75-1.14h-.52v-.87h.5c1.03,0,1.55-.36,1.55-1.08,0-.66-.4-.99-1.21-.99-.45,0-.87.16-1.27.48v-.97c.46-.26,1-.38,1.62-.38s1.07.15,1.43.45c.36.3.54.68.54,1.15,0,.88-.45,1.45-1.35,1.71v.02c.48.05.87.22,1.15.51.28.29.42.66.42,1.09,0,.6-.23,1.09-.68,1.46-.45.37-1.05.56-1.79.56-.67,0-1.2-.12-1.59-.36Z"/><rect class="cls-4" x="235.8" y="12.99" width="90" height="30"/><g class="cls-6"><path class="cls-1" d="m276.93,16.88c-.1,0-.19-.04-.26-.11s-.11-.16-.11-.27.04-.2.11-.27c.07-.07.16-.11.26-.11s.2.04.27.11c.07.07.11.16.11.27s-.04.19-.11.26c-.07.07-.16.11-.27.11Zm.28,4.51h-.58v-3.6h.58v3.6Z"/><path class="cls-1" d="m281.14,19.96c0,.23-.04.43-.13.62-.08.19-.21.35-.36.48-.16.13-.34.23-.56.31-.22.07-.46.11-.72.11-.48,0-.86-.09-1.15-.27v-.62c.34.27.73.4,1.17.4.18,0,.33-.02.48-.07s.26-.11.37-.19c.1-.08.18-.19.24-.31.06-.12.08-.25.08-.4,0-.66-.47-.99-1.41-.99h-.42v-.49h.4c.83,0,1.25-.31,1.25-.93,0-.57-.32-.86-.95-.86-.36,0-.69.12-1,.36v-.56c.32-.19.7-.29,1.15-.29.21,0,.4.03.57.09s.32.14.44.25.22.23.28.38.1.31.1.49c0,.66-.34,1.09-1.01,1.28h0c.17.03.33.07.47.14s.27.15.38.25.19.22.25.36.09.29.09.46Z"/><path class="cls-1" d="m284.39,17.67c0-.15-.02-.29-.07-.4-.05-.11-.11-.21-.2-.29s-.18-.13-.29-.17c-.11-.04-.23-.06-.37-.06-.11,0-.22.02-.33.05-.11.03-.21.07-.31.13-.1.05-.2.12-.29.19s-.18.16-.27.25v-.62c.16-.16.34-.28.54-.36s.45-.12.73-.12c.21,0,.4.03.57.09s.33.15.46.26c.13.12.23.26.3.43.07.17.11.36.11.58,0,.2-.02.38-.07.54-.05.16-.11.31-.21.46-.09.14-.21.28-.35.41s-.31.26-.5.4c-.24.17-.43.31-.58.43-.15.12-.28.23-.37.34-.09.1-.15.21-.19.31-.04.1-.05.22-.05.36h2.51v.52h-3.11v-.25c0-.22.02-.41.07-.57s.12-.32.23-.47c.11-.15.25-.3.42-.44.17-.15.39-.31.64-.5.18-.13.34-.26.46-.38s.22-.24.3-.36c.08-.12.13-.24.16-.36.03-.12.05-.25.05-.39Z"/></g><path class="cls-1" d="m283.04,32.2h-1.85v1.85h-.77v-1.85h-1.85v-.77h1.85v-1.86h.77v1.86h1.85v.77Z"/><rect class="cls-3" x="205.8" y="42.99" width="60" height="30"/><g class="cls-6"><path class="cls-1" d="m231.93,46.88c-.1,0-.19-.04-.26-.11s-.11-.16-.11-.27.04-.2.11-.27c.07-.07.16-.11.26-.11s.2.04.27.11c.07.07.11.16.11.27s-.04.19-.11.26c-.07.07-.16.11-.27.11Zm.28,4.51h-.58v-3.6h.58v3.6Z"/><path class="cls-1" d="m236.14,49.96c0,.23-.04.43-.13.62-.08.19-.21.35-.36.48-.16.13-.34.24-.56.31-.22.07-.46.11-.72.11-.48,0-.86-.09-1.15-.27v-.62c.34.27.73.4,1.17.4.18,0,.33-.02.48-.07.14-.04.26-.11.37-.19.1-.08.18-.19.24-.31.06-.12.08-.25.08-.4,0-.66-.47-.99-1.41-.99h-.42v-.49h.4c.83,0,1.25-.31,1.25-.93,0-.57-.32-.86-.95-.86-.36,0-.69.12-1,.36v-.56c.32-.19.7-.29,1.15-.29.21,0,.4.03.57.09s.32.14.44.25.22.23.28.38.1.31.1.49c0,.66-.34,1.09-1.01,1.28h0c.17.03.33.07.47.14s.27.15.38.25c.11.1.19.22.25.36s.09.29.09.46Z"/><path class="cls-1" d="m239.39,47.67c0-.15-.02-.29-.07-.4-.05-.11-.11-.21-.2-.29s-.18-.13-.29-.17c-.11-.04-.23-.06-.37-.06-.11,0-.22.01-.33.04-.11.03-.21.07-.31.13-.1.05-.2.12-.29.19s-.18.16-.27.25v-.62c.16-.16.34-.28.54-.36s.45-.12.73-.12c.21,0,.4.03.57.09s.33.15.46.26c.13.12.23.26.3.43s.11.36.11.58c0,.2-.02.38-.07.54-.05.16-.11.31-.21.46-.09.14-.21.28-.35.41-.14.13-.31.27-.5.4-.24.17-.43.31-.58.43-.15.12-.28.23-.37.33-.09.1-.15.21-.19.31s-.05.22-.05.36h2.51v.52h-3.11v-.25c0-.21.02-.41.07-.57s.12-.32.23-.47c.11-.15.25-.29.42-.44s.39-.31.64-.5c.18-.13.34-.26.46-.38.12-.12.22-.24.3-.36.08-.12.13-.24.16-.36.03-.12.05-.25.05-.39Z"/></g><path class="cls-1" d="m236.75,57.72v6.87h-1.09v-5.54c-.2.14-.41.26-.63.36-.23.1-.49.18-.78.26v-.93c.18-.06.36-.12.52-.19.17-.07.33-.14.5-.22s.33-.17.5-.27c.17-.1.34-.21.52-.34h.46Z"/><rect class="cls-4" x="295.8" y="42.99" width="60" height="30"/><g class="cls-6"><path class="cls-1" d="m321.93,46.88c-.1,0-.19-.04-.26-.11s-.11-.16-.11-.27.04-.2.11-.27c.07-.07.16-.11.26-.11s.2.04.27.11c.07.07.11.16.11.27s-.04.19-.11.26c-.07.07-.16.11-.27.11Zm.28,4.51h-.58v-3.6h.58v3.6Z"/><path class="cls-1" d="m326.14,49.96c0,.23-.04.43-.13.62-.08.19-.21.35-.36.48-.16.13-.34.24-.56.31-.22.07-.46.11-.72.11-.48,0-.86-.09-1.15-.27v-.62c.34.27.73.4,1.17.4.18,0,.33-.02.48-.07.14-.04.26-.11.37-.19.1-.08.18-.19.24-.31.06-.12.08-.25.08-.4,0-.66-.47-.99-1.41-.99h-.42v-.49h.4c.83,0,1.25-.31,1.25-.93,0-.57-.32-.86-.95-.86-.36,0-.69.12-1,.36v-.56c.32-.19.7-.29,1.15-.29.21,0,.4.03.57.09s.32.14.44.25.22.23.28.38.1.31.1.49c0,.66-.34,1.09-1.01,1.28h0c.17.03.33.07.47.14s.27.15.38.25c.11.1.19.22.25.36s.09.29.09.46Z"/><path class="cls-1" d="m329.39,47.67c0-.15-.02-.29-.07-.4-.05-.11-.11-.21-.2-.29s-.18-.13-.29-.17c-.11-.04-.23-.06-.37-.06-.11,0-.22.01-.33.04-.11.03-.21.07-.31.13-.1.05-.2.12-.29.19s-.18.16-.27.25v-.62c.16-.16.34-.28.54-.36s.45-.12.73-.12c.21,0,.4.03.57.09s.33.15.46.26c.13.12.23.26.3.43s.11.36.11.58c0,.2-.02.38-.07.54-.05.16-.11.31-.21.46-.09.14-.21.28-.35.41-.14.13-.31.27-.5.4-.24.17-.43.31-.58.43-.15.12-.28.23-.37.33-.09.1-.15.21-.19.31s-.05.22-.05.36h2.51v.52h-3.11v-.25c0-.21.02-.41.07-.57s.12-.32.23-.47c.11-.15.25-.29.42-.44s.39-.31.64-.5c.18-.13.34-.26.46-.38.12-.12.22-.24.3-.36.08-.12.13-.24.16-.36.03-.12.05-.25.05-.39Z"/></g><path class="cls-1" d="m327.55,59.52l-1.28.22.9,1.07-.67.46-.69-1.22-.69,1.22-.67-.46.9-1.07-1.29-.22.27-.75,1.21.48-.15-1.39h.85l-.15,1.39,1.21-.48.26.75Z"/><rect class="cls-3" x="265.8" y="72.99" width="60" height="30"/><g class="cls-6"><path class="cls-1" d="m291.93,76.88c-.1,0-.19-.04-.26-.11s-.11-.16-.11-.27.04-.2.11-.27c.07-.07.16-.11.26-.11s.2.04.27.11c.07.07.11.16.11.27s-.04.19-.11.26c-.07.07-.16.11-.27.11Zm.28,4.51h-.58v-3.6h.58v3.6Z"/><path class="cls-1" d="m296.14,79.96c0,.23-.04.43-.13.62-.08.19-.21.35-.36.48-.16.13-.34.24-.56.31-.22.07-.46.11-.72.11-.48,0-.86-.09-1.15-.27v-.62c.34.27.73.4,1.17.4.18,0,.33-.02.48-.07.14-.04.26-.11.37-.19.1-.08.18-.19.24-.31.06-.12.08-.25.08-.4,0-.66-.47-.99-1.41-.99h-.42v-.49h.4c.83,0,1.25-.31,1.25-.93,0-.57-.32-.86-.95-.86-.36,0-.69.12-1,.36v-.56c.32-.19.7-.29,1.15-.29.21,0,.4.03.57.09s.32.14.44.25.22.23.28.38.1.31.1.49c0,.66-.34,1.09-1.01,1.28h0c.17.03.33.07.47.14s.27.15.38.25c.11.1.19.22.25.36s.09.29.09.46Z"/><path class="cls-1" d="m299.39,77.67c0-.15-.02-.29-.07-.4-.05-.11-.11-.21-.2-.29s-.18-.13-.29-.17c-.11-.04-.23-.06-.37-.06-.11,0-.22.01-.33.04-.11.03-.21.07-.31.13-.1.05-.2.12-.29.19s-.18.16-.27.25v-.62c.16-.16.34-.28.54-.36s.45-.12.73-.12c.21,0,.4.03.57.09s.33.15.46.26c.13.12.23.26.3.43s.11.36.11.58c0,.2-.02.38-.07.54-.05.16-.11.31-.21.46-.09.14-.21.28-.35.41-.14.13-.31.27-.5.4-.24.17-.43.31-.58.43-.15.12-.28.23-.37.33-.09.1-.15.21-.19.31s-.05.22-.05.36h2.51v.52h-3.11v-.25c0-.21.02-.41.07-.57s.12-.32.23-.47c.11-.15.25-.29.42-.44s.39-.31.64-.5c.18-.13.34-.26.46-.38.12-.12.22-.24.3-.36.08-.12.13-.24.16-.36.03-.12.05-.25.05-.39Z"/></g><path class="cls-1" d="m297.81,94.59h-4.22v-.52c0-.21.03-.41.09-.6.06-.19.14-.36.24-.52.1-.16.22-.32.35-.46.13-.14.28-.29.43-.42.15-.14.31-.27.47-.39.16-.13.32-.25.47-.38.14-.12.28-.24.39-.36.12-.12.22-.24.3-.36.08-.12.15-.26.2-.4.05-.14.07-.29.07-.45,0-.18-.03-.33-.08-.47s-.13-.24-.23-.33c-.1-.09-.21-.16-.35-.2-.13-.04-.28-.07-.44-.07-.28,0-.55.06-.84.19-.29.13-.56.32-.82.58v-1.05c.14-.1.28-.19.42-.27.14-.08.29-.14.44-.19.15-.05.31-.09.47-.12s.34-.04.53-.04c.3,0,.58.04.83.12s.46.2.63.35.31.35.41.58c.1.23.14.5.14.8,0,.27-.03.52-.1.73-.07.22-.16.42-.29.61-.12.19-.27.37-.45.53-.17.17-.37.34-.59.52-.18.15-.36.29-.54.43-.18.14-.34.27-.49.41s-.26.27-.35.4c-.09.13-.13.27-.13.4v.02h3.03v.93Z"/><rect class="cls-3" x="325.8" y="72.99" width="60" height="30"/><g class="cls-6"><path class="cls-1" d="m351.93,76.88c-.1,0-.19-.04-.26-.11s-.11-.16-.11-.27.04-.2.11-.27c.07-.07.16-.11.26-.11s.2.04.27.11c.07.07.11.16.11.27s-.04.19-.11.26c-.07.07-.16.11-.27.11Zm.28,4.51h-.58v-3.6h.58v3.6Z"/><path class="cls-1" d="m356.14,79.96c0,.23-.04.43-.13.62-.08.19-.21.35-.36.48-.16.13-.34.24-.56.31-.22.07-.46.11-.72.11-.48,0-.86-.09-1.15-.27v-.62c.34.27.73.4,1.17.4.18,0,.33-.02.48-.07.14-.04.26-.11.37-.19.1-.08.18-.19.24-.31.06-.12.08-.25.08-.4,0-.66-.47-.99-1.41-.99h-.42v-.49h.4c.83,0,1.25-.31,1.25-.93,0-.57-.32-.86-.95-.86-.36,0-.69.12-1,.36v-.56c.32-.19.7-.29,1.15-.29.21,0,.4.03.57.09s.32.14.44.25.22.23.28.38.1.31.1.49c0,.66-.34,1.09-1.01,1.28h0c.17.03.33.07.47.14s.27.15.38.25c.11.1.19.22.25.36s.09.29.09.46Z"/><path class="cls-1" d="m359.39,77.67c0-.15-.02-.29-.07-.4-.05-.11-.11-.21-.2-.29s-.18-.13-.29-.17c-.11-.04-.23-.06-.37-.06-.11,0-.22.01-.33.04-.11.03-.21.07-.31.13-.1.05-.2.12-.29.19s-.18.16-.27.25v-.62c.16-.16.34-.28.54-.36s.45-.12.73-.12c.21,0,.4.03.57.09s.33.15.46.26c.13.12.23.26.3.43s.11.36.11.58c0,.2-.02.38-.07.54-.05.16-.11.31-.21.46-.09.14-.21.28-.35.41-.14.13-.31.27-.5.4-.24.17-.43.31-.58.43-.15.12-.28.23-.37.33-.09.1-.15.21-.19.31s-.05.22-.05.36h2.51v.52h-3.11v-.25c0-.21.02-.41.07-.57s.12-.32.23-.47c.11-.15.25-.29.42-.44s.39-.31.64-.5c.18-.13.34-.26.46-.38.12-.12.22-.24.3-.36.08-.12.13-.24.16-.36.03-.12.05-.25.05-.39Z"/></g><path class="cls-1" d="m353.71,94.34v-1.02c.44.35.93.52,1.48.52.45,0,.8-.1,1.07-.3s.4-.48.4-.83c0-.76-.58-1.14-1.75-1.14h-.52v-.87h.5c1.03,0,1.55-.36,1.55-1.08,0-.66-.4-.99-1.21-.99-.45,0-.87.16-1.27.48v-.97c.46-.26,1-.38,1.62-.38s1.07.15,1.43.45c.36.3.54.68.54,1.15,0,.88-.45,1.45-1.35,1.71v.02c.48.05.87.22,1.15.51.28.29.42.66.42,1.09,0,.6-.23,1.09-.68,1.46-.45.37-1.05.56-1.79.56-.67,0-1.2-.12-1.59-.36Z"/></g></svg>