<?xml version="1.0" encoding="UTF-8"?><svg id="keisan_junjo" xmlns="http://www.w3.org/2000/svg" viewBox="0 0 500.1 148.33"><defs><style>.cls-1{fill:#fff;}.cls-2{fill:#f6f6f6;}.cls-3{fill:#5d8cd4;}.cls-4{fill:#40a5a8;}.cls-5{opacity:.7;}</style></defs><g id="keisan_junjo"><rect class="cls-2" width="500.1" height="148.33"/><rect class="cls-4" x="81.94" y="17.88" width="112.57" height="37.52"/><g class="cls-5"><path class="cls-1" d="m133.71,28.38h-.72v-2.57c0-.96-.35-1.43-1.05-1.43-.36,0-.66.14-.9.41-.24.27-.35.61-.35,1.03v2.57h-.72v-4.5h.72v.75h.02c.34-.57.83-.85,1.48-.85.49,0,.87.16,1.13.48.26.32.39.78.39,1.38v2.75Z"/><path class="cls-1" d="m138.71,28.38h-.72v-.71h-.02c-.3.55-.76.82-1.39.82-1.07,0-1.61-.64-1.61-1.92v-2.69h.72v2.58c0,.95.36,1.42,1.09,1.42.35,0,.64-.13.87-.39.23-.26.34-.6.34-1.02v-2.59h.72v4.5Z"/><path class="cls-1" d="m146.56,28.38h-.72v-2.59c0-.5-.08-.86-.23-1.08-.15-.22-.41-.33-.78-.33-.31,0-.57.14-.78.42-.22.28-.32.62-.32,1.01v2.57h-.72v-2.67c0-.89-.34-1.33-1.02-1.33-.32,0-.58.13-.78.4-.21.26-.31.61-.31,1.04v2.57h-.72v-4.5h.72v.71h.02c.32-.54.79-.82,1.4-.82.31,0,.58.09.8.26.23.17.39.4.47.67.33-.62.83-.93,1.5-.93.99,0,1.49.61,1.49,1.83v2.78Z"/></g><path class="cls-1" d="m140.41,38.56l-1.61.28,1.13,1.34-.83.57-.87-1.52-.87,1.52-.84-.57,1.13-1.34-1.61-.28.33-.94,1.51.6-.19-1.74h1.07l-.19,1.74,1.51-.6.33.94Z"/><rect class="cls-4" x="44.42" y="55.4" width="75.05" height="37.52"/><g class="cls-5"><path class="cls-1" d="m77.43,65.91h-.72v-2.57c0-.96-.35-1.43-1.05-1.43-.36,0-.66.14-.9.41-.24.27-.35.61-.35,1.03v2.57h-.72v-4.5h.72v.75h.02c.34-.57.83-.85,1.48-.85.49,0,.87.16,1.13.48.26.32.39.78.39,1.38v2.75Z"/><path class="cls-1" d="m82.43,65.91h-.72v-.71h-.02c-.3.54-.76.82-1.39.82-1.07,0-1.61-.64-1.61-1.92v-2.69h.72v2.58c0,.95.36,1.42,1.09,1.42.35,0,.64-.13.87-.39.23-.26.34-.6.34-1.02v-2.59h.72v4.5Z"/><path class="cls-1" d="m90.28,65.91h-.72v-2.58c0-.5-.08-.86-.23-1.08-.15-.22-.41-.33-.78-.33-.31,0-.57.14-.78.42-.22.28-.32.62-.32,1.01v2.57h-.72v-2.67c0-.89-.34-1.33-1.02-1.33-.32,0-.58.13-.78.4s-.31.61-.31,1.04v2.57h-.72v-4.5h.72v.71h.02c.32-.55.79-.82,1.4-.82.31,0,.58.09.8.26.23.17.39.4.47.67.33-.62.83-.93,1.5-.93.99,0,1.49.61,1.49,1.83v2.77Z"/></g><path class="cls-1" d="m84.75,79.43h-2.32v2.32h-.97v-2.32h-2.32v-.97h2.32v-2.32h.97v2.32h2.32v.97Z"/><rect class="cls-3" x="6.9" y="92.93" width="75.05" height="37.52"/><g class="cls-5"><path class="cls-1" d="m39.9,103.43h-.72v-2.57c0-.96-.35-1.43-1.05-1.43-.36,0-.66.14-.9.41-.24.27-.35.61-.35,1.03v2.57h-.72v-4.5h.72v.75h.02c.34-.57.83-.85,1.48-.85.49,0,.87.16,1.13.48.26.32.39.78.39,1.38v2.75Z"/><path class="cls-1" d="m44.9,103.43h-.72v-.71h-.02c-.3.55-.76.82-1.39.82-1.07,0-1.61-.64-1.61-1.92v-2.69h.72v2.58c0,.95.36,1.42,1.09,1.42.35,0,.64-.13.87-.39.23-.26.34-.6.34-1.02v-2.59h.72v4.5Z"/><path class="cls-1" d="m52.75,103.43h-.72v-2.59c0-.5-.08-.86-.23-1.08-.15-.22-.41-.33-.78-.33-.31,0-.57.14-.78.42-.22.28-.32.62-.32,1.01v2.57h-.72v-2.67c0-.89-.34-1.33-1.02-1.33-.32,0-.58.13-.78.4-.21.26-.31.61-.31,1.04v2.57h-.72v-4.5h.72v.71h.02c.32-.54.79-.82,1.4-.82.31,0,.58.09.8.26.23.17.39.4.47.67.33-.62.83-.93,1.5-.93.99,0,1.49.61,1.49,1.83v2.78Z"/></g><path class="cls-1" d="m45.61,111.35v8.6h-1.36v-6.93c-.25.18-.51.33-.79.45-.28.12-.61.23-.97.33v-1.16c.23-.07.45-.15.66-.23.21-.08.42-.17.62-.28.21-.1.41-.21.62-.34.21-.12.43-.27.65-.43h.57Z"/><rect class="cls-3" x="81.94" y="92.93" width="75.05" height="37.52"/><g class="cls-5"><path class="cls-1" d="m114.95,103.43h-.72v-2.57c0-.96-.35-1.43-1.05-1.43-.36,0-.66.14-.9.41-.24.27-.35.61-.35,1.03v2.57h-.72v-4.5h.72v.75h.02c.34-.57.83-.85,1.48-.85.49,0,.87.16,1.13.48.26.32.39.78.39,1.38v2.75Z"/><path class="cls-1" d="m119.95,103.43h-.72v-.71h-.02c-.3.55-.76.82-1.39.82-1.07,0-1.61-.64-1.61-1.92v-2.69h.72v2.58c0,.95.36,1.42,1.09,1.42.35,0,.64-.13.87-.39.23-.26.34-.6.34-1.02v-2.59h.72v4.5Z"/><path class="cls-1" d="m127.8,103.43h-.72v-2.59c0-.5-.08-.86-.23-1.08-.15-.22-.41-.33-.78-.33-.31,0-.57.14-.78.42-.22.28-.32.62-.32,1.01v2.57h-.72v-2.67c0-.89-.34-1.33-1.02-1.33-.32,0-.58.13-.78.4-.21.26-.31.61-.31,1.04v2.57h-.72v-4.5h.72v.71h.02c.32-.54.79-.82,1.4-.82.31,0,.58.09.8.26.23.17.39.4.47.67.33-.62.83-.93,1.5-.93.99,0,1.49.61,1.49,1.83v2.78Z"/></g><path class="cls-1" d="m121.98,119.94h-5.28v-.65c0-.27.04-.51.11-.75s.17-.45.3-.66c.12-.21.27-.4.44-.58s.35-.36.54-.53c.19-.17.39-.33.59-.49.2-.16.4-.32.59-.48.18-.15.34-.3.49-.45.15-.15.28-.3.38-.46.11-.16.19-.32.25-.5.06-.17.09-.36.09-.57,0-.22-.03-.42-.1-.58-.07-.17-.16-.3-.29-.42s-.27-.2-.44-.25c-.17-.06-.35-.08-.55-.08-.34,0-.69.08-1.05.24-.36.16-.7.4-1.03.72v-1.31c.17-.13.35-.24.52-.34.18-.1.36-.18.55-.24.19-.06.38-.11.59-.14.21-.03.43-.05.66-.05.38,0,.72.05,1.03.15.31.1.57.25.79.44.22.19.39.43.51.72s.18.62.18,1c0,.34-.04.65-.13.92-.08.27-.2.53-.36.76s-.34.46-.56.67-.46.43-.73.65c-.23.18-.45.36-.68.54s-.43.34-.61.51c-.18.17-.33.33-.44.5s-.17.33-.17.5v.03h3.79v1.17Z"/><rect class="cls-3" x="156.99" y="55.4" width="75.05" height="37.52"/><g class="cls-5"><path class="cls-1" d="m190,65.91h-.72v-2.57c0-.96-.35-1.43-1.05-1.43-.36,0-.66.14-.9.41-.24.27-.35.61-.35,1.03v2.57h-.72v-4.5h.72v.75h.02c.34-.57.83-.85,1.48-.85.49,0,.87.16,1.13.48.26.32.39.78.39,1.38v2.75Z"/><path class="cls-1" d="m195,65.91h-.72v-.71h-.02c-.3.54-.76.82-1.39.82-1.07,0-1.61-.64-1.61-1.92v-2.69h.72v2.58c0,.95.36,1.42,1.09,1.42.35,0,.64-.13.87-.39.23-.26.34-.6.34-1.02v-2.59h.72v4.5Z"/><path class="cls-1" d="m202.85,65.91h-.72v-2.58c0-.5-.08-.86-.23-1.08-.15-.22-.41-.33-.78-.33-.31,0-.57.14-.79.42-.21.28-.32.62-.32,1.01v2.57h-.72v-2.67c0-.89-.34-1.33-1.02-1.33-.32,0-.58.13-.78.4s-.31.61-.31,1.04v2.57h-.72v-4.5h.72v.71h.02c.32-.55.79-.82,1.4-.82.31,0,.58.09.8.26.23.17.39.4.47.67.33-.62.83-.93,1.5-.93.99,0,1.49.61,1.49,1.83v2.77Z"/></g><path class="cls-1" d="m191.89,82.11v-1.28c.55.43,1.16.65,1.85.65.56,0,1.01-.13,1.34-.38.33-.25.5-.6.5-1.03,0-.95-.73-1.43-2.19-1.43h-.65v-1.09h.62c1.29,0,1.94-.45,1.94-1.35,0-.83-.5-1.24-1.51-1.24-.56,0-1.09.2-1.59.6v-1.21c.57-.32,1.25-.48,2.02-.48s1.34.19,1.79.56c.45.38.67.86.67,1.44,0,1.11-.56,1.82-1.69,2.13v.02c.61.06,1.08.27,1.44.64.35.37.53.82.53,1.37,0,.75-.28,1.36-.85,1.83-.57.46-1.31.7-2.24.7-.83,0-1.5-.15-1.99-.45Z"/><rect class="cls-4" x="305.59" y="17.88" width="112.57" height="37.52"/><g class="cls-5"><path class="cls-1" d="m357.36,28.38h-.72v-2.57c0-.96-.35-1.43-1.05-1.43-.36,0-.66.14-.9.41-.24.27-.35.61-.35,1.03v2.57h-.72v-4.5h.72v.75h.02c.34-.57.83-.85,1.48-.85.49,0,.87.16,1.13.48.26.32.39.78.39,1.38v2.75Z"/><path class="cls-1" d="m362.36,28.38h-.72v-.71h-.02c-.3.55-.76.82-1.39.82-1.07,0-1.61-.64-1.61-1.92v-2.69h.72v2.58c0,.95.36,1.42,1.09,1.42.35,0,.64-.13.87-.39.23-.26.34-.6.34-1.02v-2.59h.72v4.5Z"/><path class="cls-1" d="m370.21,28.38h-.72v-2.59c0-.5-.08-.86-.23-1.08-.15-.22-.41-.33-.78-.33-.31,0-.57.14-.79.42-.21.28-.32.62-.32,1.01v2.57h-.72v-2.67c0-.89-.34-1.33-1.02-1.33-.32,0-.58.13-.78.4-.21.26-.31.61-.31,1.04v2.57h-.72v-4.5h.72v.71h.02c.32-.54.79-.82,1.4-.82.31,0,.58.09.8.26.23.17.39.4.47.67.33-.62.83-.93,1.5-.93.99,0,1.49.61,1.49,1.83v2.78Z"/></g><path class="cls-1" d="m364.67,41.91h-2.32v2.32h-.97v-2.32h-2.32v-.97h2.32v-2.32h.97v2.32h2.32v.97Z"/><rect class="cls-3" x="268.06" y="55.4" width="75.05" height="37.52"/><g class="cls-5"><path class="cls-1" d="m301.07,65.91h-.72v-2.57c0-.96-.35-1.43-1.05-1.43-.36,0-.66.14-.9.41-.24.27-.35.61-.35,1.03v2.57h-.72v-4.5h.72v.75h.02c.34-.57.83-.85,1.48-.85.49,0,.87.16,1.13.48s.39.78.39,1.38v2.75Z"/><path class="cls-1" d="m306.07,65.91h-.72v-.71h-.02c-.3.54-.76.82-1.39.82-1.07,0-1.61-.64-1.61-1.92v-2.69h.72v2.58c0,.95.36,1.42,1.09,1.42.35,0,.64-.13.87-.39.23-.26.34-.6.34-1.02v-2.59h.72v4.5Z"/><path class="cls-1" d="m313.92,65.91h-.72v-2.58c0-.5-.08-.86-.23-1.08-.15-.22-.41-.33-.78-.33-.31,0-.57.14-.79.42-.21.28-.32.62-.32,1.01v2.57h-.72v-2.67c0-.89-.34-1.33-1.02-1.33-.32,0-.58.13-.78.4s-.31.61-.31,1.04v2.57h-.72v-4.5h.72v.71h.02c.32-.55.79-.82,1.4-.82.31,0,.58.09.8.26.23.17.39.4.47.67.33-.62.83-.93,1.5-.93.99,0,1.49.61,1.49,1.83v2.77Z"/></g><path class="cls-1" d="m306.77,73.82v8.6h-1.36v-6.93c-.25.18-.51.33-.79.45-.28.12-.61.23-.97.33v-1.16c.23-.07.45-.15.66-.23s.42-.17.62-.28.41-.21.62-.34c.21-.12.42-.27.65-.43h.57Z"/><rect class="cls-4" x="380.63" y="55.4" width="75.05" height="37.52"/><g class="cls-5"><path class="cls-1" d="m413.64,65.91h-.72v-2.57c0-.96-.35-1.43-1.05-1.43-.36,0-.66.14-.9.41-.24.27-.35.61-.35,1.03v2.57h-.72v-4.5h.72v.75h.02c.34-.57.83-.85,1.48-.85.49,0,.87.16,1.13.48s.39.78.39,1.38v2.75Z"/><path class="cls-1" d="m418.64,65.91h-.72v-.71h-.02c-.3.54-.76.82-1.39.82-1.07,0-1.61-.64-1.61-1.92v-2.69h.72v2.58c0,.95.36,1.42,1.09,1.42.35,0,.64-.13.87-.39.23-.26.34-.6.34-1.02v-2.59h.72v4.5Z"/><path class="cls-1" d="m426.49,65.91h-.72v-2.58c0-.5-.08-.86-.23-1.08-.15-.22-.41-.33-.78-.33-.31,0-.57.14-.79.42-.21.28-.32.62-.32,1.01v2.57h-.72v-2.67c0-.89-.34-1.33-1.02-1.33-.32,0-.58.13-.78.4s-.31.61-.31,1.04v2.57h-.72v-4.5h.72v.71h.02c.32-.55.79-.82,1.4-.82.31,0,.58.09.8.26.23.17.39.4.47.67.33-.62.83-.93,1.5-.93.99,0,1.49.61,1.49,1.83v2.77Z"/></g><path class="cls-1" d="m420.34,76.08l-1.61.28,1.13,1.34-.83.57-.87-1.52-.87,1.52-.84-.57,1.13-1.34-1.61-.28.33-.94,1.51.6-.19-1.74h1.07l-.19,1.74,1.51-.6.33.94Z"/><rect class="cls-3" x="343.11" y="92.93" width="75.05" height="37.52"/><g class="cls-5"><path class="cls-1" d="m376.12,103.43h-.72v-2.57c0-.96-.35-1.43-1.05-1.43-.36,0-.66.14-.9.41-.24.27-.35.61-.35,1.03v2.57h-.72v-4.5h.72v.75h.02c.34-.57.83-.85,1.48-.85.49,0,.87.16,1.13.48.26.32.39.78.39,1.38v2.75Z"/><path class="cls-1" d="m381.12,103.43h-.72v-.71h-.02c-.3.55-.76.82-1.39.82-1.07,0-1.61-.64-1.61-1.92v-2.69h.72v2.58c0,.95.36,1.42,1.09,1.42.35,0,.64-.13.87-.39.23-.26.34-.6.34-1.02v-2.59h.72v4.5Z"/><path class="cls-1" d="m388.97,103.43h-.72v-2.59c0-.5-.08-.86-.23-1.08-.15-.22-.41-.33-.78-.33-.31,0-.57.14-.79.42-.21.28-.32.62-.32,1.01v2.57h-.72v-2.67c0-.89-.34-1.33-1.02-1.33-.32,0-.58.13-.78.4-.21.26-.31.61-.31,1.04v2.57h-.72v-4.5h.72v.71h.02c.32-.54.79-.82,1.4-.82.31,0,.58.09.8.26.23.17.39.4.47.67.33-.62.83-.93,1.5-.93.99,0,1.49.61,1.49,1.83v2.78Z"/></g><path class="cls-1" d="m383.14,119.94h-5.28v-.65c0-.27.04-.51.11-.75s.17-.45.3-.66c.12-.21.27-.4.44-.58s.35-.36.54-.53.39-.33.59-.49.39-.32.59-.48c.18-.15.34-.3.49-.45s.28-.3.38-.46c.11-.16.19-.32.25-.5s.09-.36.09-.57c0-.22-.03-.42-.1-.58-.07-.17-.16-.3-.29-.42-.12-.11-.27-.2-.44-.25s-.35-.08-.55-.08c-.34,0-.69.08-1.05.24s-.7.4-1.03.72v-1.31c.17-.13.35-.24.52-.34.18-.1.36-.18.54-.24s.38-.11.59-.14c.21-.03.43-.05.66-.05.38,0,.72.05,1.03.15s.57.25.79.44c.22.19.39.43.51.72.12.29.18.62.18,1,0,.34-.04.65-.13.92-.08.27-.2.53-.36.76s-.34.46-.56.67-.46.43-.73.65c-.23.18-.45.36-.68.54s-.43.34-.61.51-.33.33-.44.5c-.11.17-.17.33-.17.5v.03h3.79v1.17Z"/><rect class="cls-3" x="418.16" y="92.93" width="75.05" height="37.52"/><g class="cls-5"><path class="cls-1" d="m451.17,103.43h-.72v-2.57c0-.96-.35-1.43-1.05-1.43-.36,0-.66.14-.9.41-.24.27-.35.61-.35,1.03v2.57h-.72v-4.5h.72v.75h.02c.34-.57.83-.85,1.48-.85.49,0,.87.16,1.13.48.26.32.39.78.39,1.38v2.75Z"/><path class="cls-1" d="m456.17,103.43h-.72v-.71h-.02c-.3.55-.76.82-1.39.82-1.07,0-1.61-.64-1.61-1.92v-2.69h.72v2.58c0,.95.36,1.42,1.09,1.42.35,0,.64-.13.87-.39.23-.26.34-.6.34-1.02v-2.59h.72v4.5Z"/><path class="cls-1" d="m464.02,103.43h-.72v-2.59c0-.5-.08-.86-.23-1.08-.15-.22-.41-.33-.78-.33-.31,0-.57.14-.79.42-.21.28-.32.62-.32,1.01v2.57h-.72v-2.67c0-.89-.34-1.33-1.02-1.33-.32,0-.58.13-.78.4-.21.26-.31.61-.31,1.04v2.57h-.72v-4.5h.72v.71h.02c.32-.54.79-.82,1.4-.82.31,0,.58.09.8.26.23.17.39.4.47.67.33-.62.83-.93,1.5-.93.99,0,1.49.61,1.49,1.83v2.78Z"/></g><path class="cls-1" d="m453.06,119.63v-1.28c.55.43,1.17.65,1.85.65.56,0,1-.13,1.34-.38.33-.25.5-.6.5-1.03,0-.95-.73-1.43-2.19-1.43h-.65v-1.09h.62c1.29,0,1.94-.45,1.94-1.35,0-.83-.5-1.24-1.51-1.24-.56,0-1.09.2-1.59.6v-1.21c.57-.32,1.24-.48,2.02-.48s1.34.19,1.79.56c.45.38.67.86.67,1.44,0,1.11-.56,1.82-1.69,2.13v.02c.61.06,1.08.27,1.44.64.35.37.53.82.53,1.37,0,.75-.28,1.36-.85,1.83-.57.46-1.31.7-2.24.7-.83,0-1.5-.15-1.99-.45Z"/></g></svg>