<?xml version="1.0" encoding="UTF-8"?>
<svg id="saiki_kaijou" data-name="saiki_kaijou" xmlns="http://www.w3.org/2000/svg" viewBox="0 0 546.95 335.21">
  <defs>
    <style>
      .cls-1 {
        fill: #fff;
      }

      .cls-2 {
        fill: #f6f6f6;
      }

      .cls-3 {
        fill: #f09ecb;
      }

      .cls-4 {
        fill: #5d8cd4;
      }

      .cls-5 {
        fill: #40a5a8;
      }

      .cls-6 {
        stroke: #99b3db;
        stroke-width: 2.25px;
      }

      .cls-6, .cls-7 {
        fill: none;
      }

      .cls-7 {
        stroke: #fff;
        stroke-width: 1.5px;
      }

      .cls-8 {
        fill: #ea7f90;
      }

      .cls-9 {
        opacity: .7;
      }
    </style>
  </defs>
  <g id="saiki" data-name="saiki">
    <rect class="cls-2" width="546.95" height="335.21"/>
    <rect class="cls-4" x="412.88" y="278.17" width="120" height="37.5"/>
    <g class="cls-9">
      <path class="cls-1" d="m468.36,288.67h-.72v-2.57c0-.96-.35-1.43-1.05-1.43-.36,0-.66.14-.89.41-.24.27-.35.61-.35,1.03v2.57h-.72v-4.5h.72v.75h.02c.34-.57.83-.85,1.48-.85.49,0,.87.16,1.13.48.26.32.39.78.39,1.38v2.75Z"/>
      <path class="cls-1" d="m473.36,288.67h-.72v-.71h-.02c-.3.54-.76.82-1.39.82-1.07,0-1.61-.64-1.61-1.92v-2.69h.72v2.58c0,.95.36,1.42,1.09,1.42.35,0,.64-.13.87-.39.23-.26.34-.6.34-1.02v-2.59h.72v4.5Z"/>
      <path class="cls-1" d="m481.2,288.67h-.72v-2.58c0-.5-.08-.86-.23-1.08-.15-.22-.41-.33-.78-.33-.31,0-.57.14-.79.42-.21.28-.32.62-.32,1.01v2.57h-.72v-2.67c0-.88-.34-1.33-1.02-1.33-.32,0-.58.13-.78.4-.21.27-.31.61-.31,1.04v2.57h-.72v-4.5h.72v.71h.02c.32-.54.79-.82,1.4-.82.31,0,.58.09.8.26.23.17.38.4.47.67.33-.62.83-.93,1.49-.93.99,0,1.49.61,1.49,1.83v2.77Z"/>
    </g>
    <g>
      <path class="cls-1" d="m450.25,304.86v-1.28c.55.43,1.16.65,1.85.65.56,0,1-.13,1.34-.38s.5-.6.5-1.03c0-.95-.73-1.43-2.19-1.43h-.65v-1.09h.62c1.29,0,1.94-.45,1.94-1.35,0-.83-.5-1.24-1.51-1.24-.56,0-1.09.2-1.59.6v-1.21c.57-.32,1.24-.48,2.02-.48s1.34.19,1.79.56.67.86.67,1.44c0,1.11-.56,1.82-1.69,2.13v.02c.61.06,1.08.27,1.44.64s.53.82.53,1.37c0,.75-.28,1.36-.85,1.83s-1.31.69-2.24.69c-.83,0-1.5-.15-1.99-.45Z"/>
      <path class="cls-1" d="m462.43,302.47c0,.42-.07.81-.21,1.15s-.33.65-.58.9-.54.45-.88.59-.7.21-1.1.21c-.42,0-.81-.08-1.16-.25s-.66-.41-.91-.73-.45-.73-.59-1.21-.21-1.04-.21-1.68c0-.78.09-1.47.28-2.07s.44-1.11.76-1.51.71-.71,1.14-.93.91-.32,1.42-.32c.32,0,.6.02.86.06s.47.1.62.18v1.22c-.2-.1-.41-.19-.64-.26s-.49-.11-.78-.11c-.33,0-.63.07-.91.2s-.52.33-.72.58-.36.57-.47.95-.17.81-.18,1.3h.04c.18-.28.42-.5.73-.66s.67-.24,1.08-.24c.37,0,.7.06.99.18s.55.29.76.52.37.5.48.82.17.68.17,1.09Zm-1.37.11c0-.24-.03-.46-.08-.66s-.14-.37-.26-.51-.26-.25-.43-.33-.38-.12-.61-.12-.44.04-.62.13-.33.19-.45.33-.21.29-.27.47-.09.36-.09.54c0,.2.03.4.08.61s.14.4.26.57.27.31.45.42.4.17.65.17c.22,0,.42-.04.59-.12s.32-.2.43-.34.2-.32.26-.51.09-.41.09-.64Z"/>
      <path class="cls-1" d="m468.74,305.17h-5.27v-.65c0-.27.04-.51.11-.75s.17-.45.3-.66.27-.4.44-.58.35-.36.54-.53.39-.33.59-.49.39-.32.59-.48c.18-.15.34-.3.49-.45s.28-.3.38-.45.19-.32.25-.5.09-.36.09-.57c0-.22-.03-.42-.1-.58s-.16-.3-.29-.42-.27-.2-.44-.25-.35-.08-.55-.08c-.34,0-.69.08-1.05.24s-.7.4-1.03.72v-1.31c.17-.13.35-.24.52-.34s.36-.18.54-.24.38-.11.59-.14.43-.05.66-.05c.38,0,.72.05,1.03.15s.57.25.79.44.39.43.51.72.18.62.18,1c0,.34-.04.65-.13.92s-.2.52-.36.76-.34.46-.56.67-.46.43-.73.65c-.23.18-.45.36-.68.54s-.43.34-.61.51-.33.33-.44.5-.17.33-.17.5v.03h3.79v1.17Z"/>
      <path class="cls-1" d="m470.09,302.83c0-.24.03-.48.09-.7s.15-.44.27-.63.27-.36.46-.52.4-.28.64-.37c-.36-.2-.65-.46-.87-.78s-.32-.67-.32-1.06c0-.31.06-.59.19-.86s.3-.49.53-.68.49-.34.79-.45.64-.16,1-.16.7.05,1,.16.57.26.8.45.4.42.52.68.19.54.19.85c0,.39-.11.74-.32,1.06s-.5.58-.86.78c.24.09.46.22.64.37s.34.32.47.51.22.4.28.63.09.46.09.71c0,.37-.07.7-.21,1.01s-.33.57-.57.78-.54.39-.88.51-.72.18-1.14.18-.79-.06-1.13-.18-.64-.29-.88-.51-.44-.48-.58-.78-.21-.64-.21-1.01Zm1.32-.12c0,.24.04.45.11.64s.17.35.3.49.28.23.47.3.38.11.61.11.41-.04.59-.11.33-.18.47-.31.23-.3.31-.49.11-.4.11-.64c0-.21-.04-.42-.11-.61s-.17-.35-.3-.5-.28-.25-.47-.33-.38-.12-.61-.12c-.21,0-.41.04-.59.11s-.34.18-.47.32-.23.3-.31.5-.11.4-.11.63Zm.29-3.8c0,.18.03.34.09.49s.15.28.25.39.23.2.37.26.3.09.46.09.32-.03.46-.1.27-.15.38-.26.19-.24.25-.39.09-.31.09-.48-.03-.34-.09-.49-.14-.28-.25-.39-.23-.2-.38-.26-.3-.09-.47-.09-.34.03-.48.1-.27.15-.37.27-.18.25-.24.4-.08.31-.08.48Z"/>
      <path class="cls-1" d="m476.75,302.83c0-.24.03-.48.09-.7s.15-.44.27-.63.27-.36.46-.52.4-.28.64-.37c-.36-.2-.65-.46-.87-.78s-.32-.67-.32-1.06c0-.31.06-.59.19-.86s.3-.49.53-.68.49-.34.79-.45.64-.16,1-.16.7.05,1,.16.57.26.8.45.4.42.52.68.19.54.19.85c0,.39-.11.74-.32,1.06s-.5.58-.86.78c.24.09.46.22.64.37s.34.32.47.51.22.4.28.63.09.46.09.71c0,.37-.07.7-.21,1.01s-.33.57-.57.78-.54.39-.88.51-.72.18-1.14.18-.79-.06-1.13-.18-.64-.29-.88-.51-.44-.48-.58-.78-.21-.64-.21-1.01Zm1.32-.12c0,.24.04.45.11.64s.17.35.3.49.28.23.47.3.38.11.61.11.41-.04.59-.11.33-.18.47-.31.23-.3.31-.49.11-.4.11-.64c0-.21-.04-.42-.11-.61s-.17-.35-.3-.5-.28-.25-.47-.33-.38-.12-.61-.12c-.21,0-.41.04-.59.11s-.34.18-.47.32-.23.3-.31.5-.11.4-.11.63Zm.29-3.8c0,.18.03.34.09.49s.15.28.25.39.23.2.37.26.3.09.46.09.32-.03.46-.1.27-.15.38-.26.19-.24.25-.39.09-.31.09-.48-.03-.34-.09-.49-.14-.28-.25-.39-.23-.2-.38-.26-.3-.09-.47-.09-.34.03-.48.1-.27.15-.37.27-.18.25-.24.4-.08.31-.08.48Z"/>
      <path class="cls-1" d="m486.12,305.31c-.88,0-1.56-.36-2.05-1.07s-.74-1.75-.74-3.1c0-1.48.26-2.61.77-3.37s1.25-1.14,2.21-1.14c1.85,0,2.77,1.44,2.77,4.31,0,1.42-.26,2.51-.78,3.25s-1.25,1.12-2.19,1.12Zm.13-7.6c-1.02,0-1.53,1.12-1.53,3.37,0,2.1.5,3.15,1.5,3.15s1.48-1.07,1.48-3.21-.48-3.32-1.45-3.32Z"/>
      <path class="cls-1" d="m492.78,305.31c-.88,0-1.56-.36-2.05-1.07s-.74-1.75-.74-3.1c0-1.48.26-2.61.77-3.37s1.25-1.14,2.21-1.14c1.85,0,2.77,1.44,2.77,4.31,0,1.42-.26,2.51-.78,3.25s-1.25,1.12-2.19,1.12Zm.13-7.6c-1.02,0-1.53,1.12-1.53,3.37,0,2.1.5,3.15,1.5,3.15s1.48-1.07,1.48-3.21-.48-3.32-1.45-3.32Z"/>
    </g>
    <rect class="cls-6" x="409.5" y="274.79" width="126.75" height="44.25"/>
    <rect class="cls-3" x="10.7" y="17.54" width="525" height="225"/>
    <g class="cls-9">
      <path class="cls-1" d="m254.85,28.05h-.72v-2.57c0-.96-.35-1.43-1.05-1.43-.36,0-.66.14-.89.41-.24.27-.35.61-.35,1.03v2.57h-.72v-4.5h.72v.75h.02c.34-.57.83-.85,1.48-.85.49,0,.87.16,1.13.48.26.32.39.78.39,1.38v2.75Z"/>
      <path class="cls-1" d="m259.85,28.05h-.72v-.71h-.02c-.3.54-.76.82-1.39.82-1.07,0-1.61-.64-1.61-1.92v-2.69h.72v2.58c0,.95.36,1.42,1.09,1.42.35,0,.64-.13.87-.39.23-.26.34-.6.34-1.02v-2.59h.72v4.5Z"/>
      <path class="cls-1" d="m267.69,28.05h-.72v-2.58c0-.5-.08-.86-.23-1.08-.15-.22-.41-.33-.78-.33-.31,0-.57.14-.78.42-.21.28-.32.62-.32,1.01v2.57h-.72v-2.67c0-.88-.34-1.33-1.02-1.33-.32,0-.58.13-.78.4-.21.27-.31.61-.31,1.04v2.57h-.72v-4.5h.72v.71h.02c.32-.54.79-.82,1.4-.82.31,0,.58.09.8.26.23.17.39.4.47.67.33-.62.83-.93,1.49-.93.99,0,1.49.61,1.49,1.83v2.77Z"/>
      <path class="cls-1" d="m271.36,25.82h-2.4v-.57h2.4v.57Z"/>
      <path class="cls-1" d="m276.9,25.59l-3.78,1.9v-.65l2.83-1.37v-.03l-2.83-1.56v-.66l3.78,2.12v.26Z"/>
      <path class="cls-1" d="m282.54,28.05h-.72v-2.57c0-.96-.35-1.43-1.05-1.43-.36,0-.66.14-.89.41-.24.27-.35.61-.35,1.03v2.57h-.72v-4.5h.72v.75h.02c.34-.57.83-.85,1.48-.85.49,0,.87.16,1.13.48.26.32.39.78.39,1.38v2.75Z"/>
      <path class="cls-1" d="m287.54,28.05h-.72v-.71h-.02c-.3.54-.76.82-1.39.82-1.07,0-1.61-.64-1.61-1.92v-2.69h.72v2.58c0,.95.36,1.42,1.09,1.42.35,0,.64-.13.87-.39.23-.26.34-.6.34-1.02v-2.59h.72v4.5Z"/>
      <path class="cls-1" d="m295.39,28.05h-.72v-2.58c0-.5-.08-.86-.23-1.08-.15-.22-.41-.33-.78-.33-.31,0-.57.14-.79.42-.21.28-.32.62-.32,1.01v2.57h-.72v-2.67c0-.88-.34-1.33-1.02-1.33-.32,0-.58.13-.78.4-.21.27-.31.61-.31,1.04v2.57h-.72v-4.5h.72v.71h.02c.32-.54.79-.82,1.4-.82.31,0,.58.09.8.26.23.17.38.4.47.67.33-.62.83-.93,1.49-.93.99,0,1.49.61,1.49,1.83v2.77Z"/>
    </g>
    <g>
      <path class="cls-1" d="m257.89,36.77c-.18-.11-.39-.16-.63-.16-.66,0-.99.37-.99,1.12v.81h1.39v1.07h-1.39v4.93h-1.36v-4.93h-1.03v-1.07h1.03v-.97c0-.63.21-1.13.62-1.5s.93-.55,1.55-.55c.34,0,.6.04.8.11v1.13Z"/>
      <path class="cls-1" d="m263.24,44.55h-1.32v-.94h-.02c-.41.72-1.02,1.08-1.82,1.08-.59,0-1.05-.16-1.39-.48s-.5-.74-.5-1.27c0-1.13.65-1.79,1.96-1.98l1.78-.25c0-.86-.41-1.28-1.22-1.28-.71,0-1.36.25-1.93.74v-1.19c.63-.38,1.36-.56,2.19-.56,1.52,0,2.27.75,2.27,2.24v3.9Zm-1.31-2.95l-1.26.18c-.39.05-.68.15-.88.28s-.3.38-.3.73c0,.25.09.46.27.62s.42.24.73.24c.41,0,.76-.15,1.03-.44s.41-.66.41-1.1v-.52Z"/>
      <path class="cls-1" d="m269.19,44.27c-.48.28-1.05.42-1.71.42-.89,0-1.61-.28-2.16-.83s-.82-1.28-.82-2.17c0-.99.29-1.78.88-2.38s1.37-.9,2.36-.9c.55,0,1.03.1,1.45.29v1.27c-.42-.31-.86-.47-1.34-.47-.57,0-1.04.19-1.41.58s-.55.9-.55,1.53.17,1.11.52,1.47.81.54,1.39.54c.49,0,.95-.17,1.38-.52v1.18Z"/>
      <path class="cls-1" d="m273.7,44.48c-.27.13-.62.2-1.05.2-1.16,0-1.75-.56-1.75-1.68v-3.39h-1v-1.07h1v-1.39l1.36-.39v1.78h1.44v1.07h-1.44v3c0,.36.06.61.19.76s.34.23.64.23c.23,0,.43-.07.6-.2v1.08Z"/>
    </g>
    <path class="cls-1" d="m291.94,44.55h-.96v-3.42c0-1.27-.46-1.91-1.39-1.91-.48,0-.88.18-1.19.54s-.47.82-.47,1.37v3.42h-.96v-6h.96v1h.02c.45-.76,1.11-1.14,1.97-1.14.66,0,1.16.21,1.51.64s.52,1.04.52,1.84v3.67Z"/>
    <rect class="cls-7" x="9.95" y="16.79" width="526.5" height="226.5"/>
    <rect class="cls-8" x="160.7" y="55.04" width="225" height="37.5"/>
    <g class="cls-9">
      <path class="cls-1" d="m268.69,65.55h-.72v-2.57c0-.96-.35-1.43-1.05-1.43-.36,0-.66.14-.89.41-.24.27-.35.61-.35,1.03v2.57h-.72v-4.5h.72v.75h.02c.34-.57.83-.85,1.48-.85.49,0,.87.16,1.13.48.26.32.39.78.39,1.38v2.75Z"/>
      <path class="cls-1" d="m273.69,65.55h-.72v-.71h-.02c-.3.54-.76.82-1.39.82-1.07,0-1.61-.64-1.61-1.92v-2.69h.72v2.58c0,.95.36,1.42,1.09,1.42.35,0,.64-.13.87-.39.23-.26.34-.6.34-1.02v-2.59h.72v4.5Z"/>
      <path class="cls-1" d="m281.53,65.55h-.72v-2.58c0-.5-.08-.86-.23-1.08-.15-.22-.41-.33-.78-.33-.31,0-.57.14-.78.42-.21.28-.32.62-.32,1.01v2.57h-.72v-2.67c0-.88-.34-1.33-1.02-1.33-.32,0-.58.13-.78.4-.21.27-.31.61-.31,1.04v2.57h-.72v-4.5h.72v.71h.02c.32-.54.79-.82,1.4-.82.31,0,.58.09.8.26.23.17.39.4.47.67.33-.62.83-.93,1.49-.93.99,0,1.49.61,1.49,1.83v2.77Z"/>
    </g>
    <g>
      <path class="cls-1" d="m271.13,74.79c-.22,0-.41-.07-.57-.22s-.24-.33-.24-.55.08-.41.24-.56.35-.22.57-.22.43.07.59.22.24.33.24.56c0,.21-.08.39-.24.54s-.36.23-.59.23Zm.67,7.26h-1.36v-6h1.36v6Z"/>
      <path class="cls-1" d="m276.97,74.27c-.18-.11-.39-.16-.63-.16-.66,0-.99.37-.99,1.12v.81h1.39v1.07h-1.39v4.93h-1.36v-4.93h-1.03v-1.07h1.03v-.97c0-.63.21-1.13.62-1.5s.93-.55,1.55-.55c.34,0,.6.04.8.11v1.13Z"/>
    </g>
    <rect class="cls-5" x="123.2" y="92.54" width="75" height="37.5"/>
    <g class="cls-9">
      <path class="cls-1" d="m153.16,102.39h-.02v.65h-.72v-6.66h.72v2.95h.02c.35-.6.87-.9,1.56-.9.58,0,1.03.2,1.36.6s.49.94.49,1.62c0,.75-.18,1.36-.55,1.81-.37.45-.87.68-1.5.68-.59,0-1.04-.25-1.35-.76Zm-.02-1.81v.63c0,.37.12.69.36.95.24.26.55.39.92.39.44,0,.78-.17,1.03-.5.25-.33.37-.8.37-1.39,0-.5-.12-.89-.35-1.18s-.54-.43-.94-.43c-.42,0-.76.15-1.01.44s-.38.66-.38,1.1Z"/>
      <path class="cls-1" d="m159.59,103.15c-.67,0-1.2-.21-1.59-.63-.4-.42-.6-.98-.6-1.67,0-.76.21-1.35.62-1.77s.97-.64,1.67-.64,1.19.21,1.57.62c.38.41.56.99.56,1.72s-.2,1.29-.61,1.72c-.41.43-.95.65-1.63.65Zm.05-4.1c-.46,0-.83.16-1.1.47s-.4.75-.4,1.3.14.95.41,1.26.64.46,1.09.46.82-.15,1.07-.45c.25-.3.38-.73.38-1.29s-.12-1-.38-1.3c-.25-.3-.61-.46-1.07-.46Z"/>
      <path class="cls-1" d="m164.87,103.15c-.67,0-1.2-.21-1.59-.63-.4-.42-.6-.98-.6-1.67,0-.76.21-1.35.62-1.77s.97-.64,1.67-.64,1.19.21,1.57.62c.38.41.56.99.56,1.72s-.2,1.29-.61,1.72c-.41.43-.95.65-1.63.65Zm.05-4.1c-.46,0-.83.16-1.1.47s-.4.75-.4,1.3.14.95.41,1.26.64.46,1.09.46.82-.15,1.07-.45c.25-.3.38-.73.38-1.29s-.12-1-.38-1.3c-.25-.3-.61-.46-1.07-.46Z"/>
      <path class="cls-1" d="m168.98,103.05h-.72v-6.66h.72v6.66Z"/>
    </g>
    <g>
      <path class="cls-1" d="m159.34,115.3h-5.6v-.97h5.6v.97Zm0,2.51h-5.6v-.96h5.6v.96Z"/>
      <path class="cls-1" d="m167.67,115.3h-5.6v-.97h5.6v.97Zm0,2.51h-5.6v-.96h5.6v.96Z"/>
    </g>
    <rect class="cls-5" x="85.7" y="130.04" width="75" height="37.5"/>
    <g class="cls-9">
      <path class="cls-1" d="m118.69,140.55h-.72v-2.57c0-.96-.35-1.43-1.05-1.43-.36,0-.66.14-.89.41-.24.27-.35.61-.35,1.03v2.57h-.72v-4.5h.72v.75h.02c.34-.57.83-.85,1.48-.85.49,0,.87.16,1.13.48.26.32.39.78.39,1.38v2.75Z"/>
      <path class="cls-1" d="m123.69,140.55h-.72v-.71h-.02c-.3.54-.76.82-1.39.82-1.07,0-1.61-.64-1.61-1.92v-2.69h.72v2.58c0,.95.36,1.42,1.09,1.42.35,0,.64-.13.87-.39.23-.26.34-.6.34-1.02v-2.59h.72v4.5Z"/>
      <path class="cls-1" d="m131.53,140.55h-.72v-2.58c0-.5-.08-.86-.23-1.08-.15-.22-.41-.33-.78-.33-.31,0-.57.14-.78.42-.21.28-.32.62-.32,1.01v2.57h-.72v-2.67c0-.88-.34-1.33-1.02-1.33-.32,0-.58.13-.78.4-.21.27-.31.61-.31,1.04v2.57h-.72v-4.5h.72v.71h.02c.32-.54.79-.82,1.4-.82.31,0,.58.09.8.26.23.17.39.4.47.67.33-.62.83-.93,1.49-.93.99,0,1.49.61,1.49,1.83v2.77Z"/>
    </g>
    <path class="cls-1" d="m125.93,157.05h-1.36v-3.38c0-1.12-.4-1.68-1.19-1.68-.41,0-.76.16-1.03.47s-.4.7-.4,1.17v3.42h-1.37v-6h1.37v1h.02c.45-.76,1.1-1.14,1.95-1.14.65,0,1.15.21,1.49.64s.52,1.04.52,1.84v3.67Z"/>
    <rect class="cls-4" x="160.7" y="130.04" width="75" height="37.5"/>
    <g class="cls-9">
      <path class="cls-1" d="m193.69,140.55h-.72v-2.57c0-.96-.35-1.43-1.05-1.43-.36,0-.66.14-.89.41-.24.27-.35.61-.35,1.03v2.57h-.72v-4.5h.72v.75h.02c.34-.57.83-.85,1.48-.85.49,0,.87.16,1.13.48.26.32.39.78.39,1.38v2.75Z"/>
      <path class="cls-1" d="m198.69,140.55h-.72v-.71h-.02c-.3.54-.76.82-1.39.82-1.07,0-1.61-.64-1.61-1.92v-2.69h.72v2.58c0,.95.36,1.42,1.09,1.42.35,0,.64-.13.87-.39.23-.26.34-.6.34-1.02v-2.59h.72v4.5Z"/>
      <path class="cls-1" d="m206.53,140.55h-.72v-2.58c0-.5-.08-.86-.23-1.08-.15-.22-.41-.33-.78-.33-.31,0-.57.14-.78.42-.21.28-.32.62-.32,1.01v2.57h-.72v-2.67c0-.88-.34-1.33-1.02-1.33-.32,0-.58.13-.78.4-.21.27-.31.61-.31,1.04v2.57h-.72v-4.5h.72v.71h.02c.32-.54.79-.82,1.4-.82.31,0,.58.09.8.26.23.17.39.4.47.67.33-.62.83-.93,1.49-.93.99,0,1.49.61,1.49,1.83v2.77Z"/>
    </g>
    <path class="cls-1" d="m199.39,148.46v8.59h-1.36v-6.93c-.25.18-.51.33-.79.45s-.61.23-.97.33v-1.16c.23-.07.45-.15.66-.23s.42-.17.62-.28.41-.21.62-.34.42-.27.65-.43h.57Z"/>
    <rect class="cls-4" x="235.7" y="92.54" width="75" height="37.5"/>
    <g class="cls-9">
      <path class="cls-1" d="m268.69,103.05h-.72v-2.57c0-.96-.35-1.43-1.05-1.43-.36,0-.66.14-.89.41-.24.27-.35.61-.35,1.03v2.57h-.72v-4.5h.72v.75h.02c.34-.57.83-.85,1.48-.85.49,0,.87.16,1.13.48.26.32.39.78.39,1.38v2.75Z"/>
      <path class="cls-1" d="m273.69,103.05h-.72v-.71h-.02c-.3.54-.76.82-1.39.82-1.07,0-1.61-.64-1.61-1.92v-2.69h.72v2.58c0,.95.36,1.42,1.09,1.42.35,0,.64-.13.87-.39.23-.26.34-.6.34-1.02v-2.59h.72v4.5Z"/>
      <path class="cls-1" d="m281.53,103.05h-.72v-2.58c0-.5-.08-.86-.23-1.08-.15-.22-.41-.33-.78-.33-.31,0-.57.14-.78.42-.21.28-.32.62-.32,1.01v2.57h-.72v-2.67c0-.88-.34-1.33-1.02-1.33-.32,0-.58.13-.78.4-.21.27-.31.61-.31,1.04v2.57h-.72v-4.5h.72v.71h.02c.32-.54.79-.82,1.4-.82.31,0,.58.09.8.26.23.17.39.4.47.67.33-.62.83-.93,1.49-.93.99,0,1.49.61,1.49,1.83v2.77Z"/>
    </g>
    <path class="cls-1" d="m274.39,110.96v8.59h-1.36v-6.93c-.25.18-.51.33-.79.45s-.61.23-.97.33v-1.16c.23-.07.45-.15.66-.23s.42-.17.62-.28.41-.21.62-.34.42-.27.65-.43h.57Z"/>
    <rect class="cls-5" x="348.2" y="92.54" width="112.5" height="37.5"/>
    <g class="cls-9">
      <path class="cls-1" d="m399.94,103.05h-.72v-2.57c0-.96-.35-1.43-1.05-1.43-.36,0-.66.14-.89.41-.24.27-.35.61-.35,1.03v2.57h-.72v-4.5h.72v.75h.02c.34-.57.83-.85,1.48-.85.49,0,.87.16,1.13.48.26.32.39.78.39,1.38v2.75Z"/>
      <path class="cls-1" d="m404.94,103.05h-.72v-.71h-.02c-.3.54-.76.82-1.39.82-1.07,0-1.61-.64-1.61-1.92v-2.69h.72v2.58c0,.95.36,1.42,1.09,1.42.35,0,.64-.13.87-.39.23-.26.34-.6.34-1.02v-2.59h.72v4.5Z"/>
      <path class="cls-1" d="m412.78,103.05h-.72v-2.58c0-.5-.08-.86-.23-1.08-.15-.22-.41-.33-.78-.33-.31,0-.57.14-.79.42-.21.28-.32.62-.32,1.01v2.57h-.72v-2.67c0-.88-.34-1.33-1.02-1.33-.32,0-.58.13-.78.4-.21.27-.31.61-.31,1.04v2.57h-.72v-4.5h.72v.71h.02c.32-.54.79-.82,1.4-.82.31,0,.58.09.8.26.23.17.38.4.47.67.33-.62.83-.93,1.49-.93.99,0,1.49.61,1.49,1.83v2.77Z"/>
    </g>
    <path class="cls-1" d="m406.63,113.21l-1.61.28,1.12,1.34-.83.57-.87-1.52-.87,1.52-.84-.57,1.13-1.34-1.61-.28.33-.94,1.51.6-.19-1.73h1.07l-.19,1.73,1.51-.6.33.94Z"/>
    <rect class="cls-5" x="310.7" y="130.04" width="75" height="37.5"/>
    <g class="cls-9">
      <path class="cls-1" d="m343.69,140.55h-.72v-2.57c0-.96-.35-1.43-1.05-1.43-.36,0-.66.14-.89.41-.24.27-.35.61-.35,1.03v2.57h-.72v-4.5h.72v.75h.02c.34-.57.83-.85,1.48-.85.49,0,.87.16,1.13.48.26.32.39.78.39,1.38v2.75Z"/>
      <path class="cls-1" d="m348.69,140.55h-.72v-.71h-.02c-.3.54-.76.82-1.39.82-1.07,0-1.61-.64-1.61-1.92v-2.69h.72v2.58c0,.95.36,1.42,1.09,1.42.35,0,.64-.13.87-.39.23-.26.34-.6.34-1.02v-2.59h.72v4.5Z"/>
      <path class="cls-1" d="m356.53,140.55h-.72v-2.58c0-.5-.08-.86-.23-1.08-.15-.22-.41-.33-.78-.33-.31,0-.57.14-.79.42-.21.28-.32.62-.32,1.01v2.57h-.72v-2.67c0-.88-.34-1.33-1.02-1.33-.32,0-.58.13-.78.4-.21.27-.31.61-.31,1.04v2.57h-.72v-4.5h.72v.71h.02c.32-.54.79-.82,1.4-.82.31,0,.58.09.8.26.23.17.38.4.47.67.33-.62.83-.93,1.49-.93.99,0,1.49.61,1.49,1.83v2.77Z"/>
    </g>
    <path class="cls-1" d="m350.93,157.05h-1.36v-3.38c0-1.12-.4-1.68-1.19-1.68-.41,0-.76.16-1.03.47s-.4.7-.4,1.17v3.42h-1.37v-6h1.37v1h.02c.45-.76,1.1-1.14,1.95-1.14.65,0,1.15.21,1.49.64s.52,1.04.52,1.84v3.67Z"/>
    <rect class="cls-5" x="423.2" y="130.04" width="75" height="37.5"/>
    <g class="cls-9">
      <path class="cls-1" d="m456.19,140.55h-.72v-2.57c0-.96-.35-1.43-1.05-1.43-.36,0-.66.14-.89.41-.24.27-.35.61-.35,1.03v2.57h-.72v-4.5h.72v.75h.02c.34-.57.83-.85,1.48-.85.49,0,.87.16,1.13.48.26.32.39.78.39,1.38v2.75Z"/>
      <path class="cls-1" d="m461.19,140.55h-.72v-.71h-.02c-.3.54-.76.82-1.39.82-1.07,0-1.61-.64-1.61-1.92v-2.69h.72v2.58c0,.95.36,1.42,1.09,1.42.35,0,.64-.13.87-.39.23-.26.34-.6.34-1.02v-2.59h.72v4.5Z"/>
      <path class="cls-1" d="m469.03,140.55h-.72v-2.58c0-.5-.08-.86-.23-1.08-.15-.22-.41-.33-.78-.33-.31,0-.57.14-.79.42-.21.28-.32.62-.32,1.01v2.57h-.72v-2.67c0-.88-.34-1.33-1.02-1.33-.32,0-.58.13-.78.4-.21.27-.31.61-.31,1.04v2.57h-.72v-4.5h.72v.71h.02c.32-.54.79-.82,1.4-.82.31,0,.58.09.8.26.23.17.38.4.47.67.33-.62.83-.93,1.49-.93.99,0,1.49.61,1.49,1.83v2.77Z"/>
    </g>
    <g>
      <path class="cls-1" d="m454.78,149.27c-.18-.11-.39-.16-.63-.16-.66,0-.99.37-.99,1.12v.81h1.39v1.07h-1.39v4.93h-1.36v-4.93h-1.03v-1.07h1.03v-.97c0-.63.21-1.13.62-1.5s.93-.55,1.55-.55c.34,0,.6.04.8.11v1.13Z"/>
      <path class="cls-1" d="m460.13,157.05h-1.32v-.94h-.02c-.41.72-1.02,1.08-1.82,1.08-.59,0-1.05-.16-1.39-.48s-.5-.74-.5-1.27c0-1.13.65-1.79,1.96-1.98l1.78-.25c0-.86-.41-1.28-1.22-1.28-.71,0-1.36.25-1.93.74v-1.19c.63-.38,1.36-.56,2.19-.56,1.52,0,2.27.75,2.27,2.24v3.9Zm-1.31-2.95l-1.26.18c-.39.05-.68.15-.88.28s-.3.38-.3.73c0,.25.09.46.27.62s.42.24.73.24c.41,0,.76-.15,1.03-.44s.41-.66.41-1.1v-.52Z"/>
      <path class="cls-1" d="m466.09,156.77c-.48.28-1.05.42-1.71.42-.89,0-1.61-.28-2.16-.83s-.82-1.28-.82-2.17c0-.99.29-1.78.88-2.38s1.37-.9,2.36-.9c.55,0,1.03.1,1.45.29v1.27c-.42-.31-.86-.47-1.34-.47-.57,0-1.04.19-1.41.58s-.55.9-.55,1.53.17,1.11.52,1.47.81.54,1.39.54c.49,0,.95-.17,1.38-.52v1.18Z"/>
      <path class="cls-1" d="m470.6,156.98c-.27.13-.62.2-1.05.2-1.16,0-1.75-.56-1.75-1.68v-3.39h-1v-1.07h1v-1.39l1.36-.39v1.78h1.44v1.07h-1.44v3c0,.36.06.61.19.76s.34.23.64.23c.23,0,.43-.07.6-.2v1.08Z"/>
    </g>
    <rect class="cls-5" x="423.2" y="167.54" width="75" height="37.5"/>
    <g class="cls-9">
      <path class="cls-1" d="m456.19,178.05h-.72v-2.57c0-.96-.35-1.43-1.05-1.43-.36,0-.66.14-.89.41-.24.27-.35.61-.35,1.03v2.57h-.72v-4.5h.72v.75h.02c.34-.57.83-.85,1.48-.85.49,0,.87.16,1.13.48.26.32.39.78.39,1.38v2.75Z"/>
      <path class="cls-1" d="m461.19,178.05h-.72v-.71h-.02c-.3.54-.76.82-1.39.82-1.07,0-1.61-.64-1.61-1.92v-2.69h.72v2.58c0,.95.36,1.42,1.09,1.42.35,0,.64-.13.87-.39.23-.26.34-.6.34-1.02v-2.59h.72v4.5Z"/>
      <path class="cls-1" d="m469.03,178.05h-.72v-2.58c0-.5-.08-.86-.23-1.08-.15-.22-.41-.33-.78-.33-.31,0-.57.14-.79.42-.21.28-.32.62-.32,1.01v2.57h-.72v-2.67c0-.88-.34-1.33-1.02-1.33-.32,0-.58.13-.78.4-.21.27-.31.61-.31,1.04v2.57h-.72v-4.5h.72v.71h.02c.32-.54.79-.82,1.4-.82.31,0,.58.09.8.26.23.17.38.4.47.67.33-.62.83-.93,1.49-.93.99,0,1.49.61,1.49,1.83v2.77Z"/>
    </g>
    <path class="cls-1" d="m462.33,191.77h-3.2v-1h3.2v1Z"/>
    <rect class="cls-5" x="385.7" y="205.04" width="75" height="37.5"/>
    <g class="cls-9">
      <path class="cls-1" d="m418.69,215.55h-.72v-2.57c0-.96-.35-1.43-1.05-1.43-.36,0-.66.14-.89.41-.24.27-.35.61-.35,1.03v2.57h-.72v-4.5h.72v.75h.02c.34-.57.83-.85,1.48-.85.49,0,.87.16,1.13.48.26.32.39.78.39,1.38v2.75Z"/>
      <path class="cls-1" d="m423.69,215.55h-.72v-.71h-.02c-.3.54-.76.82-1.39.82-1.07,0-1.61-.64-1.61-1.92v-2.69h.72v2.58c0,.95.36,1.42,1.09,1.42.35,0,.64-.13.87-.39.23-.26.34-.6.34-1.02v-2.59h.72v4.5Z"/>
      <path class="cls-1" d="m431.53,215.55h-.72v-2.58c0-.5-.08-.86-.23-1.08-.15-.22-.41-.33-.78-.33-.31,0-.57.14-.79.42-.21.28-.32.62-.32,1.01v2.57h-.72v-2.67c0-.88-.34-1.33-1.02-1.33-.32,0-.58.13-.78.4-.21.27-.31.61-.31,1.04v2.57h-.72v-4.5h.72v.71h.02c.32-.54.79-.82,1.4-.82.31,0,.58.09.8.26.23.17.38.4.47.67.33-.62.83-.93,1.49-.93.99,0,1.49.61,1.49,1.83v2.77Z"/>
    </g>
    <path class="cls-1" d="m425.93,232.05h-1.36v-3.38c0-1.12-.4-1.68-1.19-1.68-.41,0-.76.16-1.03.47s-.4.7-.4,1.17v3.42h-1.37v-6h1.37v1h.02c.45-.76,1.1-1.14,1.95-1.14.65,0,1.15.21,1.49.64s.52,1.04.52,1.84v3.67Z"/>
    <rect class="cls-4" x="460.7" y="205.04" width="75" height="37.5"/>
    <g class="cls-9">
      <path class="cls-1" d="m493.69,215.55h-.72v-2.57c0-.96-.35-1.43-1.05-1.43-.36,0-.66.14-.89.41-.24.27-.35.61-.35,1.03v2.57h-.72v-4.5h.72v.75h.02c.34-.57.83-.85,1.48-.85.49,0,.87.16,1.13.48.26.32.39.78.39,1.38v2.75Z"/>
      <path class="cls-1" d="m498.69,215.55h-.72v-.71h-.02c-.3.54-.76.82-1.39.82-1.07,0-1.61-.64-1.61-1.92v-2.69h.72v2.58c0,.95.36,1.42,1.09,1.42.35,0,.64-.13.87-.39.23-.26.34-.6.34-1.02v-2.59h.72v4.5Z"/>
      <path class="cls-1" d="m506.53,215.55h-.72v-2.58c0-.5-.08-.86-.23-1.08-.15-.22-.41-.33-.78-.33-.31,0-.57.14-.79.42-.21.28-.32.62-.32,1.01v2.57h-.72v-2.67c0-.88-.34-1.33-1.02-1.33-.32,0-.58.13-.78.4-.21.27-.31.61-.31,1.04v2.57h-.72v-4.5h.72v.71h.02c.32-.54.79-.82,1.4-.82.31,0,.58.09.8.26.23.17.38.4.47.67.33-.62.83-.93,1.49-.93.99,0,1.49.61,1.49,1.83v2.77Z"/>
    </g>
    <path class="cls-1" d="m499.39,223.46v8.59h-1.36v-6.93c-.25.18-.51.33-.79.45s-.61.23-.97.33v-1.16c.23-.07.45-.15.66-.23s.42-.17.62-.28.41-.21.62-.34.42-.27.65-.43h.57Z"/>
    <rect class="cls-5" x="235.7" y="244.04" width="75" height="37.5"/>
    <g class="cls-9">
      <path class="cls-1" d="m268.69,254.55h-.72v-2.57c0-.96-.35-1.43-1.05-1.43-.36,0-.66.14-.89.41-.24.27-.35.61-.35,1.03v2.57h-.72v-4.5h.72v.75h.02c.34-.57.83-.85,1.48-.85.49,0,.87.16,1.13.48.26.32.39.78.39,1.38v2.75Z"/>
      <path class="cls-1" d="m273.69,254.55h-.72v-.71h-.02c-.3.54-.76.82-1.39.82-1.07,0-1.61-.64-1.61-1.92v-2.69h.72v2.58c0,.95.36,1.42,1.09,1.42.35,0,.64-.13.87-.39.23-.26.34-.6.34-1.02v-2.59h.72v4.5Z"/>
      <path class="cls-1" d="m281.53,254.55h-.72v-2.58c0-.5-.08-.86-.23-1.08-.15-.22-.41-.33-.78-.33-.31,0-.57.14-.78.42-.21.28-.32.62-.32,1.01v2.57h-.72v-2.67c0-.88-.34-1.33-1.02-1.33-.32,0-.58.13-.78.4-.21.27-.31.61-.31,1.04v2.57h-.72v-4.5h.72v.71h.02c.32-.54.79-.82,1.4-.82.31,0,.58.09.8.26.23.17.39.4.47.67.33-.62.83-.93,1.49-.93.99,0,1.49.61,1.49,1.83v2.77Z"/>
    </g>
    <g>
      <path class="cls-1" d="m267.28,263.27c-.18-.11-.39-.16-.63-.16-.66,0-.99.37-.99,1.12v.81h1.39v1.07h-1.39v4.93h-1.36v-4.93h-1.03v-1.07h1.03v-.97c0-.63.21-1.13.62-1.5s.93-.55,1.55-.55c.34,0,.6.04.8.11v1.13Z"/>
      <path class="cls-1" d="m272.63,271.05h-1.32v-.94h-.02c-.41.72-1.02,1.08-1.82,1.08-.59,0-1.05-.16-1.39-.48s-.5-.74-.5-1.27c0-1.13.65-1.79,1.96-1.98l1.78-.25c0-.86-.41-1.28-1.22-1.28-.71,0-1.36.25-1.93.74v-1.19c.63-.38,1.36-.56,2.19-.56,1.52,0,2.27.75,2.27,2.24v3.9Zm-1.31-2.95l-1.26.18c-.39.05-.68.15-.88.28s-.3.38-.3.73c0,.25.09.46.27.62s.42.24.73.24c.41,0,.76-.15,1.03-.44s.41-.66.41-1.1v-.52Z"/>
      <path class="cls-1" d="m278.59,270.77c-.48.28-1.05.42-1.71.42-.89,0-1.61-.28-2.16-.83s-.82-1.28-.82-2.17c0-.99.29-1.78.88-2.38s1.37-.9,2.36-.9c.55,0,1.03.1,1.45.29v1.27c-.42-.31-.86-.47-1.34-.47-.57,0-1.04.19-1.41.58s-.55.9-.55,1.53.17,1.11.52,1.47.81.54,1.39.54c.49,0,.95-.17,1.38-.52v1.18Z"/>
      <path class="cls-1" d="m283.1,270.98c-.27.13-.62.2-1.05.2-1.16,0-1.75-.56-1.75-1.68v-3.39h-1v-1.07h1v-1.39l1.36-.39v1.78h1.44v1.07h-1.44v3c0,.36.06.61.19.76s.34.23.64.23c.23,0,.43-.07.6-.2v1.08Z"/>
    </g>
    <rect class="cls-4" x="235.7" y="281.54" width="75" height="37.5"/>
    <g class="cls-9">
      <path class="cls-1" d="m268.69,292.05h-.72v-2.57c0-.96-.35-1.43-1.05-1.43-.36,0-.66.14-.89.41-.24.27-.35.61-.35,1.03v2.57h-.72v-4.5h.72v.75h.02c.34-.57.83-.85,1.48-.85.49,0,.87.16,1.13.48.26.32.39.78.39,1.38v2.75Z"/>
      <path class="cls-1" d="m273.69,292.05h-.72v-.71h-.02c-.3.54-.76.82-1.39.82-1.07,0-1.61-.64-1.61-1.92v-2.69h.72v2.58c0,.95.36,1.42,1.09,1.42.35,0,.64-.13.87-.39.23-.26.34-.6.34-1.02v-2.59h.72v4.5Z"/>
      <path class="cls-1" d="m281.53,292.05h-.72v-2.58c0-.5-.08-.86-.23-1.08-.15-.22-.41-.33-.78-.33-.31,0-.57.14-.78.42-.21.28-.32.62-.32,1.01v2.57h-.72v-2.67c0-.88-.34-1.33-1.02-1.33-.32,0-.58.13-.78.4-.21.27-.31.61-.31,1.04v2.57h-.72v-4.5h.72v.71h.02c.32-.54.79-.82,1.4-.82.31,0,.58.09.8.26.23.17.39.4.47.67.33-.62.83-.93,1.49-.93.99,0,1.49.61,1.49,1.83v2.77Z"/>
    </g>
    <g>
      <path class="cls-1" d="m271.05,299.96v8.59h-1.36v-6.93c-.25.18-.51.33-.79.45s-.61.23-.97.33v-1.16c.23-.07.45-.15.66-.23s.42-.17.62-.28.41-.21.62-.34.42-.27.65-.43h.57Z"/>
      <path class="cls-1" d="m275.52,308.69c-.88,0-1.56-.36-2.05-1.07s-.74-1.75-.74-3.1c0-1.48.26-2.61.77-3.37s1.25-1.14,2.21-1.14c1.85,0,2.77,1.44,2.77,4.31,0,1.42-.26,2.51-.78,3.25s-1.25,1.12-2.19,1.12Zm.13-7.6c-1.02,0-1.53,1.12-1.53,3.37,0,2.1.5,3.15,1.5,3.15s1.48-1.07,1.48-3.21-.48-3.32-1.45-3.32Z"/>
    </g>
  </g>
</svg>